<svg width="20" height="16" viewBox="0 0 20 16" fill="none" xmlns="http://www.w3.org/2000/svg">
<path d="M18.265 4.424L18.5 4.27712V4V2V1.09788L17.735 1.576L10 6.41038L2.265 1.576L1.5 1.09788V2V4V4.27712L1.735 4.424L9.735 9.424L10 9.58962L10.265 9.424L18.265 4.424ZM2 0.5H18C18.8255 0.5 19.5 1.16777 19.5 2V14C19.5 14.3978 19.342 14.7794 19.0607 15.0607C18.7794 15.342 18.3978 15.5 18 15.5H2C1.60218 15.5 1.22064 15.342 0.93934 15.0607C0.658035 14.7794 0.5 14.3978 0.5 14V2C0.5 1.16614 1.16614 0.5 2 0.5Z" fill="white" stroke="#EB7575"/>
</svg>
