<svg width="25" height="25" viewBox="0 0 25 25" fill="none" xmlns="http://www.w3.org/2000/svg">
<path d="M12.5 0.000976562C5.62499 0.000976562 0 5.63602 0 12.5763C0 18.8514 4.57499 24.0597 10.55 25.001V16.2158H7.37499V12.5763H10.55V9.80268C10.55 6.65258 12.4125 4.92066 15.275 4.92066C16.6375 4.92066 18.0625 5.15911 18.0625 5.15911V8.25901H16.4875C14.9375 8.25901 14.45 9.22538 14.45 10.2168V12.5763H17.925L17.3625 16.2158H14.45V25.001C17.3955 24.5339 20.0777 23.025 22.0124 20.7465C23.947 18.4681 25.0067 15.5703 25 12.5763C25 5.63602 19.375 0.000976562 12.5 0.000976562Z" fill="#EB7575"/>
</svg>
