<svg width="20" height="21" viewBox="0 0 20 21" fill="none" xmlns="http://www.w3.org/2000/svg">
<path d="M11.6516 8.4354L11.7977 7.74784L11.1003 7.83532L8.23777 8.19436L7.88596 8.23848L7.81123 8.58508L7.70873 9.06046L7.60015 9.56403L8.10674 9.65754L8.63055 9.75423L7.70878 14.0893C7.70872 14.0895 7.70867 14.0898 7.70861 14.09C7.57794 14.6952 7.58107 15.2698 7.86 15.7088C8.15967 16.1805 8.67441 16.3449 9.2075 16.3449C9.62002 16.3449 10.0518 16.2507 10.4319 16.0966C10.8068 15.9446 11.1744 15.7167 11.4237 15.4159L11.5024 15.3209L11.5279 15.2002L11.6379 14.6798L11.9497 13.2047L10.8183 14.2012C10.757 14.2551 10.6688 14.303 10.5633 14.3371C10.5021 14.3569 10.4426 14.3696 10.3904 14.3768C10.3929 14.3599 10.3962 14.3411 10.4005 14.3204C10.4006 14.3201 10.4006 14.3198 10.4007 14.3195L11.6516 8.4354ZM0.5 2.59184C0.5 2.06075 0.710811 1.55149 1.08593 1.17607C1.46103 0.800671 1.9697 0.589844 2.5 0.589844H17.5C18.0303 0.589844 18.539 0.800671 18.9141 1.17607C19.2892 1.55149 19.5 2.06075 19.5 2.59184V17.6038C19.5 18.1349 19.2892 18.6442 18.9141 19.0196C18.539 19.395 18.0303 19.6058 17.5 19.6058H2.5C1.9697 19.6058 1.46103 19.395 1.08593 19.0196C0.710811 18.6442 0.5 18.1349 0.5 17.6038V2.59184ZM10 7.47034C10.4643 7.47034 10.9094 7.28577 11.2376 6.95735C11.5657 6.62894 11.75 6.18361 11.75 5.71934C11.75 5.25508 11.5657 4.80975 11.2376 4.48134C10.9094 4.15292 10.4643 3.96834 10 3.96834C9.53574 3.96834 9.09058 4.15292 8.76242 4.48134C8.43428 4.80975 8.25 5.25508 8.25 5.71934C8.25 6.18361 8.43428 6.62894 8.76242 6.95735C9.09058 7.28577 9.53574 7.47034 10 7.47034Z" fill="#EB7575" stroke="#EB7575"/>
</svg>
