<svg width="25" height="25" viewBox="0 0 25 25" fill="none" xmlns="http://www.w3.org/2000/svg">
<path fill-rule="evenodd" clip-rule="evenodd" d="M7.25 0H17.75C21.75 0 25 3.25 25 7.25V17.75C25 19.6728 24.2362 21.5169 22.8765 22.8765C21.5169 24.2362 19.6728 25 17.75 25H7.25C3.25 25 0 21.75 0 17.75V7.25C0 5.32718 0.763837 3.48311 2.12348 2.12348C3.48311 0.763837 5.32718 0 7.25 0ZM19.0625 7.5C19.9254 7.5 20.625 6.80045 20.625 5.9375C20.625 5.07455 19.9254 4.375 19.0625 4.375C18.1996 4.375 17.5 5.07455 17.5 5.9375C17.5 6.80045 18.1996 7.5 19.0625 7.5ZM17.25 12.5C17.25 15.1234 15.1234 17.25 12.5 17.25C9.87665 17.25 7.75 15.1234 7.75 12.5C7.75 9.87665 9.87665 7.75 12.5 7.75C15.1234 7.75 17.25 9.87665 17.25 12.5ZM12.5 16.25C14.5711 16.25 16.25 14.5711 16.25 12.5C16.25 10.4289 14.5711 8.75 12.5 8.75C10.4289 8.75 8.75 10.4289 8.75 12.5C8.75 14.5711 10.4289 16.25 12.5 16.25Z" fill="#EB7575"/>
</svg>
