<svg width="150" height="162" viewBox="0 0 150 162" fill="none" xmlns="http://www.w3.org/2000/svg">
<mask id="path-1-inside-1" fill="white">
<path d="M115.517 125.142L105.655 123.498L87.3444 122.967C84.6695 122.89 82.1837 124.342 80.9374 126.71L79.9763 128.536C79.7898 128.89 79.4789 129.163 79.1034 129.302L77.9626 129.725C76.9904 130.085 76.0795 129.069 76.5431 128.142C76.6627 127.902 76.6946 127.629 76.6334 127.369L76.2117 125.576C76.1206 125.189 75.898 124.845 75.5819 124.603L74.6744 123.91C74.0449 123.428 73.1296 123.796 73.0091 124.58C72.9697 124.836 72.8367 125.068 72.6358 125.231L71.4769 126.173C70.7215 126.786 69.8009 127.162 68.8317 127.252L63.5586 127.743C63.355 127.762 63.1561 127.816 62.9711 127.903L62.6941 128.033C61.6533 128.523 60.4567 127.764 60.4567 126.613C60.4567 126.197 60.2914 125.798 59.9971 125.504L59.0363 124.543C58.5777 124.084 57.9557 123.827 57.3071 123.827H56.458C55.8162 123.827 55.2594 124.27 55.1151 124.895L55.0155 125.327C54.9295 125.699 54.5975 125.963 54.2149 125.963C53.7005 125.963 53.3126 125.496 53.4074 124.99L53.5194 124.393C53.6226 123.843 53.2003 123.334 52.6402 123.334C52.1462 123.334 51.7457 122.933 51.7457 122.439V120.508C51.7457 119.89 51.2446 119.389 50.6264 119.389C50.2942 119.389 49.9792 119.537 49.7665 119.792L49.4127 120.216C48.8322 120.913 47.8966 121.203 47.0238 120.958L44.6713 120.296C43.7049 120.024 42.8211 119.517 42.0989 118.82L38.7851 115.62C38.5599 115.403 38.4327 115.103 38.4327 114.79V114.45C38.4327 114.001 38.0685 113.637 37.6192 113.637C37.4034 113.637 37.1965 113.722 37.0439 113.875L36.4283 114.491C35.9349 114.984 35.2277 115.198 34.5435 115.061L33.824 114.917C33.0277 114.758 32.5329 113.957 32.7466 113.174C32.8107 112.939 32.9352 112.724 33.1077 112.552L35.079 110.58C35.4132 110.246 35.496 109.736 35.2847 109.313C35.0987 108.941 34.7184 108.706 34.3025 108.706H30.7425C30.2695 108.706 29.8861 108.322 29.8861 107.849C29.8861 107.563 29.7429 107.296 29.5047 107.137L29.1464 106.898C28.6844 106.59 28.4068 106.071 28.4068 105.516V104.541C28.4068 104.36 28.4211 104.178 28.4494 103.998L28.7875 101.857C28.8614 101.389 29.0433 100.945 29.3188 100.559L30.1555 99.3876C30.389 99.0606 30.3961 98.6232 30.1732 98.2889C29.9938 98.0198 29.6918 97.8582 29.3684 97.8582H23.1676C23.045 97.8582 22.9229 97.8432 22.8039 97.8134L22.4824 97.733C22.0039 97.6134 21.6681 97.1834 21.6681 96.6902C21.6681 96.3873 21.7959 96.0985 22.02 95.8947L23.4068 94.634C23.4509 94.5939 23.4761 94.537 23.4761 94.4774C23.4761 94.3518 23.3672 94.2538 23.2423 94.2669L22.1546 94.3814C21.3012 94.4712 20.6336 93.66 20.8859 92.8399L20.9448 92.6486C20.9884 92.5068 21.0555 92.3733 21.1432 92.2536L22.5789 90.2959C22.7347 90.0835 22.8187 89.827 22.8187 89.5636C22.8187 88.8798 22.2643 88.3254 21.5804 88.3254H21.3955C21.1435 88.3254 20.896 88.3923 20.6784 88.5193L19.465 89.2271C19.1897 89.3877 18.8661 89.4446 18.5525 89.3876C17.8236 89.255 17.3416 88.5547 17.4781 87.8265L17.6297 87.0178C17.6914 86.6888 17.8289 86.3786 18.0314 86.112L23.343 79.1162C24.0348 78.205 24.1838 76.9925 23.7332 75.941L23.7016 75.8673C23.5528 75.5201 23.4761 75.1463 23.4761 74.7686C23.4761 73.797 23.9817 72.8954 24.8108 72.3888L25.6647 71.867C26.1681 71.5593 26.7467 71.3965 27.3368 71.3965H30.0837C30.3376 71.3965 30.5435 71.1907 30.5435 70.9367C30.5435 70.7243 30.398 70.5396 30.1916 70.4898L26.6625 69.6379C26.095 69.5009 25.6038 69.1469 25.2944 68.6518C25.0728 68.2973 24.9553 67.8877 24.9553 67.4696V64.1551C24.9553 63.6195 24.8439 63.0898 24.6282 62.5996L23.5329 60.1102C23.317 59.6195 23.5241 59.0456 24.0036 58.8059C24.2917 58.6618 24.6314 58.6645 24.9172 58.8131L25.4844 59.1081C26.9355 59.8627 28.6827 58.873 28.7817 57.2404L28.8706 55.7734C28.89 55.4525 28.9575 55.1364 29.0708 54.8356L34.1188 41.4268C34.1458 41.355 34.1785 41.2855 34.2165 41.2189C34.8795 40.0588 36.6266 40.3423 36.8887 41.6525L37.0396 42.4071C37.0901 42.6597 37.2281 42.8864 37.4292 43.0473C38.0521 43.5456 38.9817 43.2318 39.1752 42.4579L39.4872 41.2098C39.5505 40.9565 39.6649 40.7188 39.8232 40.5112L48.542 29.0767C49.0773 28.3746 50.1353 28.3788 50.665 29.0851L51.9656 30.8192C52.3163 31.2869 53.0606 31.0388 53.0606 30.4542C53.0606 30.2585 53.1547 30.0748 53.3135 29.9605L54.3454 29.2175C54.8147 28.8796 55.3753 29.491 55.0202 29.9475C54.926 30.0687 54.8977 30.23 54.9462 30.3756C55.0578 30.7106 55.4901 30.7993 55.7247 30.5354L57.2919 28.7723C57.4789 28.5618 57.827 28.6941 57.827 28.9757C57.827 29.2067 58.0729 29.3545 58.2769 29.2461L62.6698 26.9124C62.9462 26.7656 63.242 26.6589 63.5484 26.5955L67.5075 25.7764C67.735 25.7293 67.97 25.7322 68.1963 25.785L71.0994 26.4624C71.6465 26.5901 71.7142 27.3415 71.2029 27.5739C71.0585 27.6395 70.9472 27.7626 70.897 27.913L70.8602 28.0234C70.7553 28.3382 70.9896 28.6633 71.3215 28.6633C71.4175 28.6633 71.5113 28.6349 71.5912 28.5817L72.3498 28.076C72.7025 27.8409 73.1692 27.8724 73.487 28.1528L74.4784 29.0276C74.8641 29.3679 75.4581 29.0067 75.3333 28.5077C75.2822 28.3033 75.3586 28.088 75.5272 27.9616L76.7449 27.0483C77.059 26.8127 77.4189 26.6454 77.8014 26.5572L78.7615 26.3356C79.1553 26.2447 79.563 26.2322 79.9617 26.2986L81.3367 26.5278C81.9135 26.6239 82.4822 26.3178 82.7197 25.7835C82.8801 25.4227 83.1977 25.1559 83.5807 25.0601L84.1544 24.9167C84.6479 24.7933 85.1703 24.929 85.5414 25.2769L86.7689 26.4276C87.2903 26.9165 87.6244 27.5724 87.713 28.2817L87.7423 28.516C87.8443 29.3323 88.3275 30.0518 89.0445 30.4551C89.9484 30.9635 91.0682 30.8848 91.892 30.2548L93.0711 29.3532C93.2407 29.2234 93.4357 29.1307 93.6433 29.0808L96.4071 28.4175C96.7744 28.3294 97.0592 28.7375 96.8497 29.0518L96.8171 29.1006C96.7929 29.137 96.7799 29.1798 96.7799 29.2236C96.7799 29.4284 97.0337 29.5237 97.1686 29.3696L98.4216 27.9376C98.7784 27.5299 99.4057 27.509 99.7889 27.8921L101.504 29.6074C101.636 29.7396 101.711 29.9189 101.711 30.1058C101.711 30.772 102.55 31.0662 102.966 30.546L105.465 27.4216C105.917 26.8565 106.76 26.8099 107.272 27.3216C107.5 27.5493 107.628 27.8581 107.628 28.1801V30.5761C107.628 31.9097 108.419 33.1163 109.642 33.648C110.735 34.1234 111.493 35.1443 111.633 36.3285L111.932 38.8759C112.008 39.5192 112.553 40.0041 113.201 40.0041C113.32 40.0041 113.438 39.9875 113.552 39.9549L114.735 39.617C115.361 39.438 116.013 39.3651 116.664 39.4012L117.617 39.4542C118.28 39.491 118.913 39.7453 119.417 40.1777L119.466 40.2193C119.681 40.4033 119.864 40.6208 120.01 40.8633L120.379 41.4784C120.625 41.8893 121.069 42.1407 121.549 42.1407H122.262C122.621 42.1407 122.913 42.4322 122.913 42.7918C122.913 43.0021 122.811 43.1994 122.64 43.3216L121.684 44.0048C121.002 44.4918 120.144 44.6642 119.327 44.4785L117.297 44.017C117.106 43.9738 116.907 44.0182 116.753 44.138C116.295 44.4937 116.495 45.2246 117.07 45.2983L121.8 45.9047C121.884 45.9155 121.968 45.9339 122.049 45.9595L122.215 46.0119C123.322 46.3616 123.504 47.8518 122.513 48.4573L122.264 48.6093C122.152 48.6776 122.068 48.7832 122.027 48.9075C121.965 49.0938 122.006 49.2991 122.135 49.4473L123.739 51.2928C124.621 52.3061 126.05 52.6441 127.292 52.1328L127.91 51.8781C127.974 51.8517 128.031 51.81 128.076 51.7567L128.251 51.5459C128.447 51.3109 128.83 51.4494 128.83 51.7554C128.83 51.8095 128.816 51.8628 128.791 51.9105L125.919 57.2441C125.595 57.8451 125.687 58.585 126.149 59.0882L126.577 59.5557C126.918 59.9272 126.905 60.5011 126.549 60.8575C126.428 60.9782 126.277 61.0638 126.111 61.1052L125.188 61.3361C125.096 61.3589 125.002 61.3633 124.909 61.349C124.248 61.2474 123.829 62.0349 124.283 62.5259L124.687 62.9641C124.816 63.1036 124.985 63.1996 125.171 63.2387L127.319 63.6909C127.777 63.7874 128.244 63.836 128.712 63.836H130.251C130.289 63.836 130.327 63.8271 130.361 63.81L130.578 63.7017C130.756 63.6123 130.934 63.8248 130.814 63.9847C130.806 63.9951 130.797 64.0047 130.787 64.0133L125.731 68.4571C125.503 68.6567 125.212 68.7668 124.909 68.7668H123.686C123.215 68.7668 122.934 69.2917 123.195 69.6836C123.226 69.7296 123.263 69.771 123.305 69.8067L124.374 70.7115C124.717 71.0014 124.512 71.5609 124.063 71.5609H122.302C122.163 71.5609 122.024 71.5364 121.892 71.4887L120.834 71.1038C120.566 71.0064 120.283 71.2048 120.283 71.4897C120.283 71.5368 120.291 71.5835 120.307 71.6279L121.105 73.8619C121.433 75.2817 121.598 76.7342 121.598 78.1913V80.6006V81.5646L121.328 82.3957H122.584L123.543 79.6272L124.063 74.0901L125.758 80.7346L128.527 75.1975V83.5032L124.063 87.3791H120.775L123.242 91.6109L125.786 93.1609C128.869 95.0396 128.637 99.5904 125.378 101.145L124.721 101.638V102.789C127.126 103.106 128.503 105.699 127.418 107.869L126.865 108.974C128.828 111.59 126.834 115.314 123.57 115.116V119.718L120.119 123.498L115.517 125.142Z"/>
</mask>
<path d="M115.517 125.142L105.655 123.498L87.3444 122.967C84.6695 122.89 82.1837 124.342 80.9374 126.71L79.9763 128.536C79.7898 128.89 79.4789 129.163 79.1034 129.302L77.9626 129.725C76.9904 130.085 76.0795 129.069 76.5431 128.142C76.6627 127.902 76.6946 127.629 76.6334 127.369L76.2117 125.576C76.1206 125.189 75.898 124.845 75.5819 124.603L74.6744 123.91C74.0449 123.428 73.1296 123.796 73.0091 124.58C72.9697 124.836 72.8367 125.068 72.6358 125.231L71.4769 126.173C70.7215 126.786 69.8009 127.162 68.8317 127.252L63.5586 127.743C63.355 127.762 63.1561 127.816 62.9711 127.903L62.6941 128.033C61.6533 128.523 60.4567 127.764 60.4567 126.613C60.4567 126.197 60.2914 125.798 59.9971 125.504L59.0363 124.543C58.5777 124.084 57.9557 123.827 57.3071 123.827H56.458C55.8162 123.827 55.2594 124.27 55.1151 124.895L55.0155 125.327C54.9295 125.699 54.5975 125.963 54.2149 125.963C53.7005 125.963 53.3126 125.496 53.4074 124.99L53.5194 124.393C53.6226 123.843 53.2003 123.334 52.6402 123.334C52.1462 123.334 51.7457 122.933 51.7457 122.439V120.508C51.7457 119.89 51.2446 119.389 50.6264 119.389C50.2942 119.389 49.9792 119.537 49.7665 119.792L49.4127 120.216C48.8322 120.913 47.8966 121.203 47.0238 120.958L44.6713 120.296C43.7049 120.024 42.8211 119.517 42.0989 118.82L38.7851 115.62C38.5599 115.403 38.4327 115.103 38.4327 114.79V114.45C38.4327 114.001 38.0685 113.637 37.6192 113.637C37.4034 113.637 37.1965 113.722 37.0439 113.875L36.4283 114.491C35.9349 114.984 35.2277 115.198 34.5435 115.061L33.824 114.917C33.0277 114.758 32.5329 113.957 32.7466 113.174C32.8107 112.939 32.9352 112.724 33.1077 112.552L35.079 110.58C35.4132 110.246 35.496 109.736 35.2847 109.313C35.0987 108.941 34.7184 108.706 34.3025 108.706H30.7425C30.2695 108.706 29.8861 108.322 29.8861 107.849C29.8861 107.563 29.7429 107.296 29.5047 107.137L29.1464 106.898C28.6844 106.59 28.4068 106.071 28.4068 105.516V104.541C28.4068 104.36 28.4211 104.178 28.4494 103.998L28.7875 101.857C28.8614 101.389 29.0433 100.945 29.3188 100.559L30.1555 99.3876C30.389 99.0606 30.3961 98.6232 30.1732 98.2889C29.9938 98.0198 29.6918 97.8582 29.3684 97.8582H23.1676C23.045 97.8582 22.9229 97.8432 22.8039 97.8134L22.4824 97.733C22.0039 97.6134 21.6681 97.1834 21.6681 96.6902C21.6681 96.3873 21.7959 96.0985 22.02 95.8947L23.4068 94.634C23.4509 94.5939 23.4761 94.537 23.4761 94.4774C23.4761 94.3518 23.3672 94.2538 23.2423 94.2669L22.1546 94.3814C21.3012 94.4712 20.6336 93.66 20.8859 92.8399L20.9448 92.6486C20.9884 92.5068 21.0555 92.3733 21.1432 92.2536L22.5789 90.2959C22.7347 90.0835 22.8187 89.827 22.8187 89.5636C22.8187 88.8798 22.2643 88.3254 21.5804 88.3254H21.3955C21.1435 88.3254 20.896 88.3923 20.6784 88.5193L19.465 89.2271C19.1897 89.3877 18.8661 89.4446 18.5525 89.3876C17.8236 89.255 17.3416 88.5547 17.4781 87.8265L17.6297 87.0178C17.6914 86.6888 17.8289 86.3786 18.0314 86.112L23.343 79.1162C24.0348 78.205 24.1838 76.9925 23.7332 75.941L23.7016 75.8673C23.5528 75.5201 23.4761 75.1463 23.4761 74.7686C23.4761 73.797 23.9817 72.8954 24.8108 72.3888L25.6647 71.867C26.1681 71.5593 26.7467 71.3965 27.3368 71.3965H30.0837C30.3376 71.3965 30.5435 71.1907 30.5435 70.9367C30.5435 70.7243 30.398 70.5396 30.1916 70.4898L26.6625 69.6379C26.095 69.5009 25.6038 69.1469 25.2944 68.6518C25.0728 68.2973 24.9553 67.8877 24.9553 67.4696V64.1551C24.9553 63.6195 24.8439 63.0898 24.6282 62.5996L23.5329 60.1102C23.317 59.6195 23.5241 59.0456 24.0036 58.8059C24.2917 58.6618 24.6314 58.6645 24.9172 58.8131L25.4844 59.1081C26.9355 59.8627 28.6827 58.873 28.7817 57.2404L28.8706 55.7734C28.89 55.4525 28.9575 55.1364 29.0708 54.8356L34.1188 41.4268C34.1458 41.355 34.1785 41.2855 34.2165 41.2189C34.8795 40.0588 36.6266 40.3423 36.8887 41.6525L37.0396 42.4071C37.0901 42.6597 37.2281 42.8864 37.4292 43.0473C38.0521 43.5456 38.9817 43.2318 39.1752 42.4579L39.4872 41.2098C39.5505 40.9565 39.6649 40.7188 39.8232 40.5112L48.542 29.0767C49.0773 28.3746 50.1353 28.3788 50.665 29.0851L51.9656 30.8192C52.3163 31.2869 53.0606 31.0388 53.0606 30.4542C53.0606 30.2585 53.1547 30.0748 53.3135 29.9605L54.3454 29.2175C54.8147 28.8796 55.3753 29.491 55.0202 29.9475C54.926 30.0687 54.8977 30.23 54.9462 30.3756C55.0578 30.7106 55.4901 30.7993 55.7247 30.5354L57.2919 28.7723C57.4789 28.5618 57.827 28.6941 57.827 28.9757C57.827 29.2067 58.0729 29.3545 58.2769 29.2461L62.6698 26.9124C62.9462 26.7656 63.242 26.6589 63.5484 26.5955L67.5075 25.7764C67.735 25.7293 67.97 25.7322 68.1963 25.785L71.0994 26.4624C71.6465 26.5901 71.7142 27.3415 71.2029 27.5739C71.0585 27.6395 70.9472 27.7626 70.897 27.913L70.8602 28.0234C70.7553 28.3382 70.9896 28.6633 71.3215 28.6633C71.4175 28.6633 71.5113 28.6349 71.5912 28.5817L72.3498 28.076C72.7025 27.8409 73.1692 27.8724 73.487 28.1528L74.4784 29.0276C74.8641 29.3679 75.4581 29.0067 75.3333 28.5077C75.2822 28.3033 75.3586 28.088 75.5272 27.9616L76.7449 27.0483C77.059 26.8127 77.4189 26.6454 77.8014 26.5572L78.7615 26.3356C79.1553 26.2447 79.563 26.2322 79.9617 26.2986L81.3367 26.5278C81.9135 26.6239 82.4822 26.3178 82.7197 25.7835C82.8801 25.4227 83.1977 25.1559 83.5807 25.0601L84.1544 24.9167C84.6479 24.7933 85.1703 24.929 85.5414 25.2769L86.7689 26.4276C87.2903 26.9165 87.6244 27.5724 87.713 28.2817L87.7423 28.516C87.8443 29.3323 88.3275 30.0518 89.0445 30.4551C89.9484 30.9635 91.0682 30.8848 91.892 30.2548L93.0711 29.3532C93.2407 29.2234 93.4357 29.1307 93.6433 29.0808L96.4071 28.4175C96.7744 28.3294 97.0592 28.7375 96.8497 29.0518L96.8171 29.1006C96.7929 29.137 96.7799 29.1798 96.7799 29.2236C96.7799 29.4284 97.0337 29.5237 97.1686 29.3696L98.4216 27.9376C98.7784 27.5299 99.4057 27.509 99.7889 27.8921L101.504 29.6074C101.636 29.7396 101.711 29.9189 101.711 30.1058C101.711 30.772 102.55 31.0662 102.966 30.546L105.465 27.4216C105.917 26.8565 106.76 26.8099 107.272 27.3216C107.5 27.5493 107.628 27.8581 107.628 28.1801V30.5761C107.628 31.9097 108.419 33.1163 109.642 33.648C110.735 34.1234 111.493 35.1443 111.633 36.3285L111.932 38.8759C112.008 39.5192 112.553 40.0041 113.201 40.0041C113.32 40.0041 113.438 39.9875 113.552 39.9549L114.735 39.617C115.361 39.438 116.013 39.3651 116.664 39.4012L117.617 39.4542C118.28 39.491 118.913 39.7453 119.417 40.1777L119.466 40.2193C119.681 40.4033 119.864 40.6208 120.01 40.8633L120.379 41.4784C120.625 41.8893 121.069 42.1407 121.549 42.1407H122.262C122.621 42.1407 122.913 42.4322 122.913 42.7918C122.913 43.0021 122.811 43.1994 122.64 43.3216L121.684 44.0048C121.002 44.4918 120.144 44.6642 119.327 44.4785L117.297 44.017C117.106 43.9738 116.907 44.0182 116.753 44.138C116.295 44.4937 116.495 45.2246 117.07 45.2983L121.8 45.9047C121.884 45.9155 121.968 45.9339 122.049 45.9595L122.215 46.0119C123.322 46.3616 123.504 47.8518 122.513 48.4573L122.264 48.6093C122.152 48.6776 122.068 48.7832 122.027 48.9075C121.965 49.0938 122.006 49.2991 122.135 49.4473L123.739 51.2928C124.621 52.3061 126.05 52.6441 127.292 52.1328L127.91 51.8781C127.974 51.8517 128.031 51.81 128.076 51.7567L128.251 51.5459C128.447 51.3109 128.83 51.4494 128.83 51.7554C128.83 51.8095 128.816 51.8628 128.791 51.9105L125.919 57.2441C125.595 57.8451 125.687 58.585 126.149 59.0882L126.577 59.5557C126.918 59.9272 126.905 60.5011 126.549 60.8575C126.428 60.9782 126.277 61.0638 126.111 61.1052L125.188 61.3361C125.096 61.3589 125.002 61.3633 124.909 61.349C124.248 61.2474 123.829 62.0349 124.283 62.5259L124.687 62.9641C124.816 63.1036 124.985 63.1996 125.171 63.2387L127.319 63.6909C127.777 63.7874 128.244 63.836 128.712 63.836H130.251C130.289 63.836 130.327 63.8271 130.361 63.81L130.578 63.7017C130.756 63.6123 130.934 63.8248 130.814 63.9847C130.806 63.9951 130.797 64.0047 130.787 64.0133L125.731 68.4571C125.503 68.6567 125.212 68.7668 124.909 68.7668H123.686C123.215 68.7668 122.934 69.2917 123.195 69.6836C123.226 69.7296 123.263 69.771 123.305 69.8067L124.374 70.7115C124.717 71.0014 124.512 71.5609 124.063 71.5609H122.302C122.163 71.5609 122.024 71.5364 121.892 71.4887L120.834 71.1038C120.566 71.0064 120.283 71.2048 120.283 71.4897C120.283 71.5368 120.291 71.5835 120.307 71.6279L121.105 73.8619C121.433 75.2817 121.598 76.7342 121.598 78.1913V80.6006V81.5646L121.328 82.3957H122.584L123.543 79.6272L124.063 74.0901L125.758 80.7346L128.527 75.1975V83.5032L124.063 87.3791H120.775L123.242 91.6109L125.786 93.1609C128.869 95.0396 128.637 99.5904 125.378 101.145L124.721 101.638V102.789C127.126 103.106 128.503 105.699 127.418 107.869L126.865 108.974C128.828 111.59 126.834 115.314 123.57 115.116V119.718L120.119 123.498L115.517 125.142Z" fill="#EB7575" stroke="white" stroke-width="2" mask="url(#path-1-inside-1)"/>
<path d="M56.9817 21.1872L49.7024 10.3952C48.3723 8.42326 45.6955 7.90294 43.7236 9.23302C41.7517 10.5631 41.2313 13.2399 42.5614 15.2118L49.9528 26.1699C51.4994 28.4629 50.8944 31.5754 48.6014 33.122L45.7722 35.0303C45.0418 35.523 44.8491 36.5145 45.3417 37.2449C45.8344 37.9753 46.8259 38.168 47.5563 37.6753L47.8945 37.4472L61.1045 57.0319C61.5066 57.628 62.3158 57.7853 62.912 57.3832C63.5082 56.9811 63.6655 56.1718 63.2634 55.5757L50.0534 35.991L52.3783 34.4228L65.5883 54.0075C65.9904 54.6036 66.7997 54.7609 67.3959 54.3588C67.992 53.9567 68.1493 53.1474 67.7472 52.5513L54.5372 32.9666L57.1943 31.1744L70.3483 50.676C70.7813 51.318 71.6529 51.4874 72.2949 51.0544C72.9369 50.6213 73.1063 49.7498 72.6733 49.1078L59.5193 29.6062L61.6782 28.15L74.8321 47.6516C75.2652 48.2936 76.1367 48.463 76.7787 48.03C77.4207 47.5969 77.5902 46.7254 77.1571 46.0834L64.0031 26.5818L66.4941 24.9016L79.6481 44.4032C80.0812 45.0452 80.9527 45.2146 81.5947 44.7816C82.2367 44.3485 82.4061 43.477 81.9731 42.835L68.8191 23.3334L68.9912 23.2173C69.7216 22.7246 69.9143 21.7332 69.4217 21.0028C68.929 20.2724 67.9375 20.0796 67.2072 20.5723L64.2119 22.5926C61.8272 24.2011 58.5902 23.5719 56.9817 21.1872Z" fill="#EB7575" stroke="white"/>
<path d="M53.5608 49.1187L54.3634 46.5332L56.8151 49.495L57.0785 49.8131L57.4406 49.6146L61.3681 47.4613L61.6277 47.319V47.0229V41.8298V38.2766H64.0633L67.1231 39.6226L69.646 40.8837L70.3696 41.2454V40.4365V36.2059L73.5511 32.9225L74.456 36.1388L74.5947 36.6319L75.0843 36.4813L81.5036 34.5066L85.5168 36.1115L82.2646 38.2452L82.0388 38.3933V38.6633V41.5526L54.2036 58.9453L50.9795 56.2256L55.5445 53.6654L55.9812 53.4205L55.7356 52.9841L53.5608 49.1187Z" fill="#EB7575" stroke="white"/>
<rect x="50.2969" y="58.8154" width="44.4185" height="12.8199" transform="rotate(-35.5 50.2969 58.8154)" fill="#EB7575"/>
<path d="M19.3481 154.73V136.835H31.4209V138.947H21.7163V144.489H30.1147V146.601H21.7163V154.73H19.3481ZM34.2041 154.73V141.767H36.1816V143.732C36.6862 142.812 37.1501 142.206 37.5732 141.913C38.0046 141.62 38.4766 141.474 38.9893 141.474C39.7298 141.474 40.4826 141.71 41.2476 142.182L40.4907 144.22C39.9536 143.903 39.4165 143.744 38.8794 143.744C38.3993 143.744 37.9679 143.891 37.5854 144.184C37.203 144.468 36.9303 144.867 36.7676 145.38C36.5234 146.161 36.4014 147.016 36.4014 147.943V154.73H34.2041ZM41.7358 148.249C41.7358 145.848 42.4032 144.07 43.7378 142.914C44.8527 141.954 46.2118 141.474 47.8149 141.474C49.5972 141.474 51.0539 142.06 52.1851 143.231C53.3162 144.395 53.8818 146.007 53.8818 148.065C53.8818 149.734 53.6296 151.048 53.125 152.008C52.6286 152.96 51.9002 153.701 50.9399 154.23C49.9878 154.759 48.9461 155.023 47.8149 155.023C46.0002 155.023 44.5312 154.442 43.4082 153.278C42.2933 152.114 41.7358 150.438 41.7358 148.249ZM43.9941 148.249C43.9941 149.909 44.3563 151.154 45.0806 151.984C45.8049 152.806 46.7163 153.217 47.8149 153.217C48.9054 153.217 49.8128 152.802 50.5371 151.972C51.2614 151.142 51.6235 149.876 51.6235 148.175C51.6235 146.572 51.2573 145.36 50.5249 144.538C49.8006 143.708 48.8973 143.292 47.8149 143.292C46.7163 143.292 45.8049 143.703 45.0806 144.525C44.3563 145.347 43.9941 146.588 43.9941 148.249ZM56.3354 139.203V136.652H58.6914V138.666C58.6914 139.757 58.5653 140.542 58.313 141.022C57.9631 141.681 57.4178 142.178 56.6772 142.511L56.1401 141.645C56.5796 141.465 56.9051 141.185 57.1167 140.802C57.3364 140.412 57.4585 139.879 57.4829 139.203H56.3354ZM62.3901 154.73V136.835H64.7583V144.184H74.0601V136.835H76.4282V154.73H74.0601V146.295H64.7583V154.73H62.3901ZM79.2847 148.249C79.2847 145.848 79.952 144.07 81.2866 142.914C82.4015 141.954 83.7606 141.474 85.3638 141.474C87.146 141.474 88.6027 142.06 89.7339 143.231C90.8651 144.395 91.4307 146.007 91.4307 148.065C91.4307 149.734 91.1784 151.048 90.6738 152.008C90.1774 152.96 89.4491 153.701 88.4888 154.23C87.5366 154.759 86.495 155.023 85.3638 155.023C83.549 155.023 82.0801 154.442 80.957 153.278C79.8421 152.114 79.2847 150.438 79.2847 148.249ZM81.543 148.249C81.543 149.909 81.9051 151.154 82.6294 151.984C83.3537 152.806 84.2651 153.217 85.3638 153.217C86.4543 153.217 87.3617 152.802 88.0859 151.972C88.8102 151.142 89.1724 149.876 89.1724 148.175C89.1724 146.572 88.8062 145.36 88.0737 144.538C87.3494 143.708 86.4461 143.292 85.3638 143.292C84.2651 143.292 83.3537 143.703 82.6294 144.525C81.9051 145.347 81.543 146.588 81.543 148.249ZM102.515 154.73V152.826C101.506 154.291 100.134 155.023 98.4009 155.023C97.6359 155.023 96.9198 154.877 96.2524 154.584C95.5933 154.291 95.1009 153.925 94.7754 153.485C94.458 153.038 94.2342 152.493 94.104 151.85C94.0145 151.418 93.9697 150.735 93.9697 149.799V141.767H96.167V148.957C96.167 150.104 96.2118 150.877 96.3013 151.276C96.4396 151.854 96.7326 152.309 97.1802 152.643C97.6278 152.969 98.1812 153.131 98.8403 153.131C99.4995 153.131 100.118 152.965 100.696 152.631C101.274 152.289 101.681 151.829 101.917 151.251C102.161 150.666 102.283 149.819 102.283 148.712V141.767H104.48V154.73H102.515ZM107.056 150.861L109.229 150.519C109.351 151.39 109.688 152.057 110.242 152.521C110.803 152.985 111.584 153.217 112.585 153.217C113.595 153.217 114.343 153.013 114.832 152.606C115.32 152.191 115.564 151.707 115.564 151.154C115.564 150.657 115.348 150.267 114.917 149.982C114.616 149.787 113.867 149.538 112.671 149.237C111.06 148.83 109.941 148.48 109.314 148.188C108.695 147.886 108.223 147.475 107.898 146.955C107.581 146.426 107.422 145.844 107.422 145.209C107.422 144.631 107.552 144.098 107.812 143.61C108.081 143.113 108.443 142.702 108.899 142.377C109.241 142.125 109.705 141.913 110.291 141.742C110.885 141.563 111.519 141.474 112.195 141.474C113.212 141.474 114.103 141.62 114.868 141.913C115.641 142.206 116.211 142.605 116.577 143.109C116.943 143.606 117.196 144.273 117.334 145.111L115.186 145.404C115.088 144.737 114.803 144.216 114.331 143.842C113.867 143.467 113.208 143.28 112.354 143.28C111.344 143.28 110.624 143.447 110.193 143.781C109.762 144.114 109.546 144.505 109.546 144.953C109.546 145.237 109.635 145.494 109.814 145.722C109.993 145.958 110.274 146.153 110.657 146.308C110.876 146.389 111.523 146.576 112.598 146.869C114.152 147.284 115.234 147.626 115.845 147.895C116.463 148.155 116.947 148.537 117.297 149.042C117.647 149.547 117.822 150.173 117.822 150.922C117.822 151.654 117.607 152.346 117.175 152.997C116.752 153.64 116.138 154.14 115.332 154.499C114.526 154.848 113.615 155.023 112.598 155.023C110.913 155.023 109.627 154.674 108.74 153.974C107.861 153.274 107.3 152.236 107.056 150.861ZM129.309 150.556L131.58 150.836C131.222 152.163 130.558 153.192 129.59 153.925C128.621 154.657 127.384 155.023 125.879 155.023C123.983 155.023 122.477 154.442 121.362 153.278C120.256 152.106 119.702 150.466 119.702 148.358C119.702 146.177 120.264 144.485 121.387 143.28C122.51 142.076 123.966 141.474 125.757 141.474C127.49 141.474 128.906 142.064 130.005 143.244C131.104 144.424 131.653 146.084 131.653 148.224C131.653 148.354 131.649 148.55 131.641 148.81H121.973C122.054 150.234 122.457 151.325 123.181 152.082C123.905 152.838 124.809 153.217 125.891 153.217C126.697 153.217 127.384 153.005 127.954 152.582C128.524 152.159 128.975 151.483 129.309 150.556ZM122.095 147.003H129.333C129.236 145.913 128.959 145.095 128.503 144.55C127.804 143.703 126.896 143.28 125.781 143.28C124.772 143.28 123.922 143.618 123.23 144.293C122.546 144.969 122.168 145.872 122.095 147.003Z" fill="#EB7575"/>
</svg>
