<svg width="336" height="71" viewBox="0 0 336 71" fill="none" xmlns="http://www.w3.org/2000/svg">
<mask id="path-1-inside-1" fill="white">
<path d="M53.0336 67.9854L47.7125 67.0985L37.8323 66.8121C36.389 66.7703 35.0477 67.5538 34.3752 68.8316L33.8566 69.8168C33.756 70.008 33.5882 70.1553 33.3856 70.2304L32.77 70.4584C32.2455 70.6526 31.7539 70.1044 32.0041 69.6041C32.0686 69.475 32.0859 69.3274 32.0528 69.1869L31.8253 68.2199C31.7761 68.0109 31.656 67.8254 31.4854 67.695L30.9958 67.3205C30.6561 67.0608 30.1622 67.2595 30.0972 67.6822C30.076 67.8202 30.0042 67.9455 29.8958 68.0336L29.2705 68.5416C28.8629 68.8728 28.3661 69.0756 27.8431 69.1242L24.9979 69.3889C24.888 69.3991 24.7807 69.4284 24.6809 69.4754L24.5314 69.5457C23.9698 69.81 23.3242 69.4002 23.3242 68.7795C23.3242 68.555 23.2349 68.3396 23.0762 68.1808L22.5577 67.6624C22.3103 67.4149 21.9746 67.2759 21.6247 67.2759H21.1665C20.8202 67.2759 20.5198 67.5149 20.4419 67.8523L20.3882 68.0852C20.3417 68.2863 20.1626 68.4288 19.9562 68.4288C19.6786 68.4288 19.4693 68.1766 19.5205 67.9038L19.5809 67.5814C19.6366 67.2844 19.4087 67.0098 19.1065 67.0098C18.8399 67.0098 18.6239 66.7937 18.6239 66.5272V65.4854C18.6239 65.1518 18.3534 64.8814 18.0199 64.8814C17.8406 64.8814 17.6707 64.961 17.5559 65.0987L17.365 65.3278C17.0518 65.7037 16.5469 65.8603 16.076 65.7279L14.8066 65.3709C14.2852 65.2242 13.8083 64.9505 13.4186 64.5743L11.6305 62.8478C11.509 62.7305 11.4404 62.5689 11.4404 62.4V62.2164C11.4404 61.9739 11.2438 61.7774 11.0014 61.7774C10.885 61.7774 10.7733 61.8237 10.691 61.906L10.3588 62.2382C10.0926 62.5044 9.71099 62.6199 9.34185 62.5461L8.95359 62.4684C8.5239 62.3825 8.25693 61.9505 8.37223 61.5278C8.40686 61.4008 8.47403 61.285 8.5671 61.192L9.63076 60.1283C9.81109 59.948 9.85579 59.6725 9.74174 59.4444C9.64138 59.2437 9.43622 59.1169 9.2118 59.1169H7.29089C7.03566 59.1169 6.82875 58.91 6.82875 58.6547C6.82875 58.5002 6.75152 58.3559 6.62295 58.2702L6.42966 58.1413C6.18034 57.9751 6.03058 57.6953 6.03058 57.3956V56.8698C6.03058 56.7717 6.03827 56.6737 6.05357 56.5768L6.23599 55.4215C6.27587 55.1689 6.37402 54.929 6.52265 54.7209L6.97412 54.0889C7.10014 53.9124 7.10395 53.6765 6.98368 53.4961C6.88688 53.3509 6.72394 53.2637 6.54944 53.2637H3.20358C3.13743 53.2637 3.07152 53.2555 3.00735 53.2395L2.83386 53.1961C2.57564 53.1316 2.3945 52.8996 2.3945 52.6334C2.3945 52.47 2.46344 52.3141 2.58436 52.2042L3.33265 51.5239C3.35646 51.5023 3.37003 51.4716 3.37003 51.4394C3.37003 51.3716 3.3113 51.3188 3.24387 51.3259L2.65696 51.3876C2.19651 51.4361 1.83627 50.9984 1.97243 50.5559L2.00419 50.4526C2.02773 50.3761 2.06393 50.3041 2.11127 50.2395L2.88594 49.1832C2.96998 49.0686 3.01529 48.9302 3.01529 48.7881C3.01529 48.4191 2.71616 48.1199 2.34716 48.1199H2.24736C2.1114 48.1199 1.97787 48.156 1.86043 48.2245L1.2057 48.6065C1.05717 48.6931 0.882556 48.7238 0.71337 48.6931C0.320023 48.6215 0.0599433 48.2437 0.133621 47.8507L0.215431 47.4144C0.248722 47.2368 0.322929 47.0695 0.432167 46.9256L3.29824 43.1508C3.67152 42.6591 3.75191 42.0049 3.50875 41.4375L3.49171 41.3977C3.41143 41.2104 3.37003 41.0087 3.37003 40.8049C3.37003 40.2807 3.64286 39.7942 4.09021 39.5208L4.55095 39.2392C4.82262 39.0732 5.13482 38.9854 5.4532 38.9854H6.93539C7.07241 38.9854 7.18349 38.8743 7.18349 38.7373C7.18349 38.6227 7.105 38.523 6.99361 38.4961L5.08937 38.0365C4.78314 37.9626 4.5181 37.7715 4.35114 37.5044C4.23159 37.3131 4.1682 37.0921 4.1682 36.8665V35.078C4.1682 34.789 4.10809 34.5032 3.99171 34.2387L3.40069 32.8955C3.28418 32.6307 3.39592 32.3211 3.65466 32.1917C3.81012 32.1139 3.99341 32.1154 4.14762 32.1956L4.45367 32.3547C5.23668 32.7619 6.17944 32.2279 6.23283 31.347L6.28081 30.5554C6.2913 30.3823 6.32771 30.2117 6.38882 30.0494L9.11265 22.8142C9.12723 22.7755 9.14487 22.738 9.1654 22.702C9.52311 22.076 10.4659 22.229 10.6073 22.936L10.6887 23.3432C10.7159 23.4795 10.7904 23.6018 10.8989 23.6886C11.235 23.9575 11.7366 23.7882 11.841 23.3706L12.0094 22.6971C12.0435 22.5604 12.1052 22.4322 12.1906 22.3202L16.8952 16.1503C17.184 15.7715 17.7549 15.7737 18.0407 16.1548L18.7425 17.0905C18.9317 17.3429 19.3333 17.209 19.3333 16.8936C19.3333 16.788 19.3841 16.6889 19.4698 16.6272L20.0266 16.2263C20.2798 16.044 20.5823 16.3739 20.3907 16.6202C20.3399 16.6855 20.3246 16.7726 20.3508 16.8512C20.411 17.0319 20.6443 17.0798 20.7708 16.9374L21.6165 15.986C21.7174 15.8725 21.9052 15.9439 21.9052 16.0958C21.9052 16.2204 22.0379 16.3002 22.1479 16.2417L24.5183 14.9825C24.6674 14.9033 24.8271 14.8457 24.9924 14.8115L27.1286 14.3695C27.2514 14.3441 27.3782 14.3457 27.5003 14.3742L29.0668 14.7397C29.362 14.8086 29.3985 15.214 29.1226 15.3394C29.0447 15.3748 28.9846 15.4413 28.9576 15.5224L28.9377 15.582C28.8811 15.7518 29.0075 15.9273 29.1866 15.9273C29.2384 15.9273 29.289 15.9119 29.3321 15.8832L29.7415 15.6103C29.9318 15.4835 30.1836 15.5005 30.3551 15.6518L30.8901 16.1238C31.0982 16.3075 31.4186 16.1125 31.3513 15.8433C31.3237 15.733 31.365 15.6168 31.456 15.5486L32.113 15.0558C32.2825 14.9287 32.4767 14.8384 32.6831 14.7908L33.2011 14.6713C33.4136 14.6222 33.6336 14.6154 33.8487 14.6513L34.5907 14.775C34.9019 14.8268 35.2088 14.6617 35.3369 14.3734C35.4234 14.1787 35.5948 14.0347 35.8015 13.983L36.1111 13.9056C36.3773 13.839 36.6592 13.9123 36.8594 14.1L37.5218 14.7209C37.8031 14.9847 37.9834 15.3386 38.0312 15.7214L38.047 15.8477C38.1021 16.2882 38.3628 16.6764 38.7497 16.8941C39.2374 17.1684 39.8416 17.1259 40.2861 16.786L40.9223 16.2995C41.0139 16.2295 41.119 16.1794 41.2311 16.1525L42.7224 15.7946C42.9206 15.7471 43.0742 15.9673 42.9612 16.1369L42.9436 16.1632C42.9305 16.1828 42.9235 16.2059 42.9235 16.2296C42.9235 16.3401 43.0605 16.3915 43.1333 16.3084L43.8094 15.5357C44.0019 15.3157 44.3404 15.3044 44.5472 15.5111L45.4727 16.4367C45.544 16.508 45.5841 16.6047 45.5841 16.7056C45.5841 17.065 46.0368 17.2238 46.2613 16.9431L47.61 15.2573C47.8539 14.9523 48.3088 14.9272 48.5849 15.2033C48.7077 15.3261 48.7768 15.4928 48.7768 15.6665V16.9593C48.7768 17.6789 49.2036 18.33 49.8635 18.6169C50.4536 18.8734 50.8628 19.4243 50.9379 20.0633L51.0996 21.4378C51.1405 21.7849 51.4347 22.0465 51.7842 22.0465C51.8482 22.0465 51.912 22.0376 51.9736 22.02L52.6117 21.8377C52.9497 21.7411 53.3015 21.7018 53.6526 21.7213L54.1667 21.7498C54.5247 21.7697 54.8661 21.9069 55.1384 22.1402L55.1645 22.1627C55.2804 22.262 55.3795 22.3793 55.458 22.5101L55.6571 22.8421C55.7902 23.0638 56.0298 23.1994 56.2883 23.1994H56.6731C56.8672 23.1994 57.0245 23.3567 57.0245 23.5508C57.0245 23.6642 56.9697 23.7707 56.8773 23.8366L56.3613 24.2053C55.9933 24.4681 55.5307 24.5611 55.0898 24.4609L53.9941 24.2119C53.8914 24.1885 53.7836 24.2125 53.7004 24.2772C53.4537 24.4691 53.5615 24.8634 53.8715 24.9032L56.4238 25.2304C56.4694 25.2363 56.5144 25.2462 56.5583 25.26L56.6478 25.2883C57.2452 25.4769 57.3433 26.281 56.8087 26.6077L56.6744 26.6898C56.6141 26.7266 56.5688 26.7836 56.5464 26.8507C56.5129 26.9512 56.535 27.062 56.6046 27.1419L57.4705 28.1377C57.9459 28.6845 58.7172 28.8669 59.3872 28.591L59.721 28.4536C59.7556 28.4393 59.7862 28.4168 59.8102 28.3881L59.905 28.2743C60.0107 28.1475 60.2171 28.2222 60.2171 28.3873C60.2171 28.4166 60.2099 28.4453 60.196 28.471L58.6464 31.349C58.4718 31.6733 58.5215 32.0725 58.7704 32.344L59.0016 32.5962C59.1854 32.7967 59.1787 33.1064 58.9863 33.2987C58.9212 33.3638 58.8397 33.41 58.7503 33.4323L58.2518 33.557C58.2027 33.5693 58.1516 33.5716 58.1015 33.5639C57.7451 33.5091 57.519 33.934 57.7636 34.1989L57.9818 34.4354C58.0513 34.5107 58.1426 34.5625 58.2428 34.5836L59.4018 34.8276C59.6491 34.8796 59.9011 34.9059 60.1537 34.9059H60.9839C61.0045 34.9059 61.0249 34.9011 61.0434 34.8918L61.1602 34.8334C61.2567 34.7852 61.3524 34.8998 61.2877 34.9861C61.2835 34.9917 61.2787 34.9969 61.2734 35.0015L58.5448 37.3993C58.4223 37.507 58.2648 37.5664 58.1016 37.5664H57.4417C57.1875 37.5664 57.0359 37.8497 57.1769 38.0611C57.1934 38.0859 57.2134 38.1083 57.2361 38.1275L57.8131 38.6158C57.9979 38.7722 57.8874 39.0741 57.6453 39.0741H56.6951C56.6196 39.0741 56.5448 39.0609 56.4739 39.0351L55.9028 38.8274C55.7583 38.7749 55.6055 38.8819 55.6055 39.0357C55.6055 39.0611 55.6099 39.0863 55.6184 39.1102L56.0489 40.3156C56.2257 41.0818 56.315 41.8655 56.315 42.6518V43.9517V44.4719L56.1695 44.9204H56.8471L57.3646 43.4265L57.6453 40.4388L58.5597 44.0241L60.0535 41.0363V45.5179L57.6453 47.6093H55.8707L57.2018 49.8927L58.5746 50.7291C60.2385 51.7428 60.1132 54.1983 58.3547 55.0374L58 55.3034V55.9242C59.298 56.0954 60.0407 57.4945 59.4552 58.6655L59.1572 59.2615C60.2159 60.6731 59.1405 62.6825 57.3792 62.5756V65.0588L55.5168 67.0985L53.0336 67.9854Z"/>
</mask>
<path d="M53.0336 67.9854L47.7125 67.0985L37.8323 66.8121C36.389 66.7703 35.0477 67.5538 34.3752 68.8316L33.8566 69.8168C33.756 70.008 33.5882 70.1553 33.3856 70.2304L32.77 70.4584C32.2455 70.6526 31.7539 70.1044 32.0041 69.6041C32.0686 69.475 32.0859 69.3274 32.0528 69.1869L31.8253 68.2199C31.7761 68.0109 31.656 67.8254 31.4854 67.695L30.9958 67.3205C30.6561 67.0608 30.1622 67.2595 30.0972 67.6822C30.076 67.8202 30.0042 67.9455 29.8958 68.0336L29.2705 68.5416C28.8629 68.8728 28.3661 69.0756 27.8431 69.1242L24.9979 69.3889C24.888 69.3991 24.7807 69.4284 24.6809 69.4754L24.5314 69.5457C23.9698 69.81 23.3242 69.4002 23.3242 68.7795C23.3242 68.555 23.2349 68.3396 23.0762 68.1808L22.5577 67.6624C22.3103 67.4149 21.9746 67.2759 21.6247 67.2759H21.1665C20.8202 67.2759 20.5198 67.5149 20.4419 67.8523L20.3882 68.0852C20.3417 68.2863 20.1626 68.4288 19.9562 68.4288C19.6786 68.4288 19.4693 68.1766 19.5205 67.9038L19.5809 67.5814C19.6366 67.2844 19.4087 67.0098 19.1065 67.0098C18.8399 67.0098 18.6239 66.7937 18.6239 66.5272V65.4854C18.6239 65.1518 18.3534 64.8814 18.0199 64.8814C17.8406 64.8814 17.6707 64.961 17.5559 65.0987L17.365 65.3278C17.0518 65.7037 16.5469 65.8603 16.076 65.7279L14.8066 65.3709C14.2852 65.2242 13.8083 64.9505 13.4186 64.5743L11.6305 62.8478C11.509 62.7305 11.4404 62.5689 11.4404 62.4V62.2164C11.4404 61.9739 11.2438 61.7774 11.0014 61.7774C10.885 61.7774 10.7733 61.8237 10.691 61.906L10.3588 62.2382C10.0926 62.5044 9.71099 62.6199 9.34185 62.5461L8.95359 62.4684C8.5239 62.3825 8.25693 61.9505 8.37223 61.5278C8.40686 61.4008 8.47403 61.285 8.5671 61.192L9.63076 60.1283C9.81109 59.948 9.85579 59.6725 9.74174 59.4444C9.64138 59.2437 9.43622 59.1169 9.2118 59.1169H7.29089C7.03566 59.1169 6.82875 58.91 6.82875 58.6547C6.82875 58.5002 6.75152 58.3559 6.62295 58.2702L6.42966 58.1413C6.18034 57.9751 6.03058 57.6953 6.03058 57.3956V56.8698C6.03058 56.7717 6.03827 56.6737 6.05357 56.5768L6.23599 55.4215C6.27587 55.1689 6.37402 54.929 6.52265 54.7209L6.97412 54.0889C7.10014 53.9124 7.10395 53.6765 6.98368 53.4961C6.88688 53.3509 6.72394 53.2637 6.54944 53.2637H3.20358C3.13743 53.2637 3.07152 53.2555 3.00735 53.2395L2.83386 53.1961C2.57564 53.1316 2.3945 52.8996 2.3945 52.6334C2.3945 52.47 2.46344 52.3141 2.58436 52.2042L3.33265 51.5239C3.35646 51.5023 3.37003 51.4716 3.37003 51.4394C3.37003 51.3716 3.3113 51.3188 3.24387 51.3259L2.65696 51.3876C2.19651 51.4361 1.83627 50.9984 1.97243 50.5559L2.00419 50.4526C2.02773 50.3761 2.06393 50.3041 2.11127 50.2395L2.88594 49.1832C2.96998 49.0686 3.01529 48.9302 3.01529 48.7881C3.01529 48.4191 2.71616 48.1199 2.34716 48.1199H2.24736C2.1114 48.1199 1.97787 48.156 1.86043 48.2245L1.2057 48.6065C1.05717 48.6931 0.882556 48.7238 0.71337 48.6931C0.320023 48.6215 0.0599433 48.2437 0.133621 47.8507L0.215431 47.4144C0.248722 47.2368 0.322929 47.0695 0.432167 46.9256L3.29824 43.1508C3.67152 42.6591 3.75191 42.0049 3.50875 41.4375L3.49171 41.3977C3.41143 41.2104 3.37003 41.0087 3.37003 40.8049C3.37003 40.2807 3.64286 39.7942 4.09021 39.5208L4.55095 39.2392C4.82262 39.0732 5.13482 38.9854 5.4532 38.9854H6.93539C7.07241 38.9854 7.18349 38.8743 7.18349 38.7373C7.18349 38.6227 7.105 38.523 6.99361 38.4961L5.08937 38.0365C4.78314 37.9626 4.5181 37.7715 4.35114 37.5044C4.23159 37.3131 4.1682 37.0921 4.1682 36.8665V35.078C4.1682 34.789 4.10809 34.5032 3.99171 34.2387L3.40069 32.8955C3.28418 32.6307 3.39592 32.3211 3.65466 32.1917C3.81012 32.1139 3.99341 32.1154 4.14762 32.1956L4.45367 32.3547C5.23668 32.7619 6.17944 32.2279 6.23283 31.347L6.28081 30.5554C6.2913 30.3823 6.32771 30.2117 6.38882 30.0494L9.11265 22.8142C9.12723 22.7755 9.14487 22.738 9.1654 22.702C9.52311 22.076 10.4659 22.229 10.6073 22.936L10.6887 23.3432C10.7159 23.4795 10.7904 23.6018 10.8989 23.6886C11.235 23.9575 11.7366 23.7882 11.841 23.3706L12.0094 22.6971C12.0435 22.5604 12.1052 22.4322 12.1906 22.3202L16.8952 16.1503C17.184 15.7715 17.7549 15.7737 18.0407 16.1548L18.7425 17.0905C18.9317 17.3429 19.3333 17.209 19.3333 16.8936C19.3333 16.788 19.3841 16.6889 19.4698 16.6272L20.0266 16.2263C20.2798 16.044 20.5823 16.3739 20.3907 16.6202C20.3399 16.6855 20.3246 16.7726 20.3508 16.8512C20.411 17.0319 20.6443 17.0798 20.7708 16.9374L21.6165 15.986C21.7174 15.8725 21.9052 15.9439 21.9052 16.0958C21.9052 16.2204 22.0379 16.3002 22.1479 16.2417L24.5183 14.9825C24.6674 14.9033 24.8271 14.8457 24.9924 14.8115L27.1286 14.3695C27.2514 14.3441 27.3782 14.3457 27.5003 14.3742L29.0668 14.7397C29.362 14.8086 29.3985 15.214 29.1226 15.3394C29.0447 15.3748 28.9846 15.4413 28.9576 15.5224L28.9377 15.582C28.8811 15.7518 29.0075 15.9273 29.1866 15.9273C29.2384 15.9273 29.289 15.9119 29.3321 15.8832L29.7415 15.6103C29.9318 15.4835 30.1836 15.5005 30.3551 15.6518L30.8901 16.1238C31.0982 16.3075 31.4186 16.1125 31.3513 15.8433C31.3237 15.733 31.365 15.6168 31.456 15.5486L32.113 15.0558C32.2825 14.9287 32.4767 14.8384 32.6831 14.7908L33.2011 14.6713C33.4136 14.6222 33.6336 14.6154 33.8487 14.6513L34.5907 14.775C34.9019 14.8268 35.2088 14.6617 35.3369 14.3734C35.4234 14.1787 35.5948 14.0347 35.8015 13.983L36.1111 13.9056C36.3773 13.839 36.6592 13.9123 36.8594 14.1L37.5218 14.7209C37.8031 14.9847 37.9834 15.3386 38.0312 15.7214L38.047 15.8477C38.1021 16.2882 38.3628 16.6764 38.7497 16.8941C39.2374 17.1684 39.8416 17.1259 40.2861 16.786L40.9223 16.2995C41.0139 16.2295 41.119 16.1794 41.2311 16.1525L42.7224 15.7946C42.9206 15.7471 43.0742 15.9673 42.9612 16.1369L42.9436 16.1632C42.9305 16.1828 42.9235 16.2059 42.9235 16.2296C42.9235 16.3401 43.0605 16.3915 43.1333 16.3084L43.8094 15.5357C44.0019 15.3157 44.3404 15.3044 44.5472 15.5111L45.4727 16.4367C45.544 16.508 45.5841 16.6047 45.5841 16.7056C45.5841 17.065 46.0368 17.2238 46.2613 16.9431L47.61 15.2573C47.8539 14.9523 48.3088 14.9272 48.5849 15.2033C48.7077 15.3261 48.7768 15.4928 48.7768 15.6665V16.9593C48.7768 17.6789 49.2036 18.33 49.8635 18.6169C50.4536 18.8734 50.8628 19.4243 50.9379 20.0633L51.0996 21.4378C51.1405 21.7849 51.4347 22.0465 51.7842 22.0465C51.8482 22.0465 51.912 22.0376 51.9736 22.02L52.6117 21.8377C52.9497 21.7411 53.3015 21.7018 53.6526 21.7213L54.1667 21.7498C54.5247 21.7697 54.8661 21.9069 55.1384 22.1402L55.1645 22.1627C55.2804 22.262 55.3795 22.3793 55.458 22.5101L55.6571 22.8421C55.7902 23.0638 56.0298 23.1994 56.2883 23.1994H56.6731C56.8672 23.1994 57.0245 23.3567 57.0245 23.5508C57.0245 23.6642 56.9697 23.7707 56.8773 23.8366L56.3613 24.2053C55.9933 24.4681 55.5307 24.5611 55.0898 24.4609L53.9941 24.2119C53.8914 24.1885 53.7836 24.2125 53.7004 24.2772C53.4537 24.4691 53.5615 24.8634 53.8715 24.9032L56.4238 25.2304C56.4694 25.2363 56.5144 25.2462 56.5583 25.26L56.6478 25.2883C57.2452 25.4769 57.3433 26.281 56.8087 26.6077L56.6744 26.6898C56.6141 26.7266 56.5688 26.7836 56.5464 26.8507C56.5129 26.9512 56.535 27.062 56.6046 27.1419L57.4705 28.1377C57.9459 28.6845 58.7172 28.8669 59.3872 28.591L59.721 28.4536C59.7556 28.4393 59.7862 28.4168 59.8102 28.3881L59.905 28.2743C60.0107 28.1475 60.2171 28.2222 60.2171 28.3873C60.2171 28.4166 60.2099 28.4453 60.196 28.471L58.6464 31.349C58.4718 31.6733 58.5215 32.0725 58.7704 32.344L59.0016 32.5962C59.1854 32.7967 59.1787 33.1064 58.9863 33.2987C58.9212 33.3638 58.8397 33.41 58.7503 33.4323L58.2518 33.557C58.2027 33.5693 58.1516 33.5716 58.1015 33.5639C57.7451 33.5091 57.519 33.934 57.7636 34.1989L57.9818 34.4354C58.0513 34.5107 58.1426 34.5625 58.2428 34.5836L59.4018 34.8276C59.6491 34.8796 59.9011 34.9059 60.1537 34.9059H60.9839C61.0045 34.9059 61.0249 34.9011 61.0434 34.8918L61.1602 34.8334C61.2567 34.7852 61.3524 34.8998 61.2877 34.9861C61.2835 34.9917 61.2787 34.9969 61.2734 35.0015L58.5448 37.3993C58.4223 37.507 58.2648 37.5664 58.1016 37.5664H57.4417C57.1875 37.5664 57.0359 37.8497 57.1769 38.0611C57.1934 38.0859 57.2134 38.1083 57.2361 38.1275L57.8131 38.6158C57.9979 38.7722 57.8874 39.0741 57.6453 39.0741H56.6951C56.6196 39.0741 56.5448 39.0609 56.4739 39.0351L55.9028 38.8274C55.7583 38.7749 55.6055 38.8819 55.6055 39.0357C55.6055 39.0611 55.6099 39.0863 55.6184 39.1102L56.0489 40.3156C56.2257 41.0818 56.315 41.8655 56.315 42.6518V43.9517V44.4719L56.1695 44.9204H56.8471L57.3646 43.4265L57.6453 40.4388L58.5597 44.0241L60.0535 41.0363V45.5179L57.6453 47.6093H55.8707L57.2018 49.8927L58.5746 50.7291C60.2385 51.7428 60.1132 54.1983 58.3547 55.0374L58 55.3034V55.9242C59.298 56.0954 60.0407 57.4945 59.4552 58.6655L59.1572 59.2615C60.2159 60.6731 59.1405 62.6825 57.3792 62.5756V65.0588L55.5168 67.0985L53.0336 67.9854Z" fill="#EB7575" stroke="white" stroke-width="2" mask="url(#path-1-inside-1)"/>
<path d="M21.4505 11.8919L17.5227 6.06869C16.805 5.00467 15.3607 4.72392 14.2966 5.4416C13.2326 6.15929 12.9519 7.60365 13.6696 8.66766L17.6578 14.5805C18.4923 15.8177 18.1659 17.4972 16.9287 18.3317L15.4021 19.3614C15.0079 19.6272 14.904 20.1622 15.1698 20.5563C15.4356 20.9504 15.9706 21.0544 16.3647 20.7886L16.5472 20.6655L23.6751 31.2331C23.8921 31.5547 24.3287 31.6396 24.6504 31.4226C24.9721 31.2057 25.057 30.769 24.84 30.4473L17.7121 19.8798L18.9666 19.0336L26.0945 29.6011C26.3115 29.9228 26.7481 30.0077 27.0698 29.7907C27.3915 29.5738 27.4764 29.1371 27.2594 28.8154L20.1315 18.2479L21.5652 17.2808L28.6629 27.8035C28.8966 28.15 29.3668 28.2414 29.7132 28.0077C30.0597 27.774 30.1511 27.3038 29.9174 26.9574L22.8197 16.4346L23.9846 15.6489L31.0823 26.1716C31.316 26.5181 31.7862 26.6095 32.1327 26.3758C32.4791 26.1421 32.5705 25.6719 32.3368 25.3255L25.2391 14.8027L26.5833 13.8961L33.6809 24.4188C33.9146 24.7653 34.3849 24.8567 34.7313 24.623C35.0777 24.3893 35.1691 23.9191 34.9354 23.5727L27.8378 13.0499L27.9306 12.9873C28.3248 12.7215 28.4287 12.1865 28.1629 11.7924C27.8971 11.3982 27.3621 11.2943 26.968 11.5601L25.3518 12.6502C24.0651 13.5181 22.3184 13.1786 21.4505 11.8919Z" fill="#EB7575" stroke="white"/>
<path d="M20.7857 29.6172L21.2224 29.3723L20.9769 28.9359L19.852 26.9366L20.1296 26.0423L21.1814 27.3129L21.4447 27.631L21.8069 27.4325L23.9261 26.2706L24.1857 26.1283V25.8322V23.0301V21.3431H25.2213L26.8229 22.0476L28.1791 22.7255L28.9027 23.0872V22.2783V20.0887L30.276 18.6715L30.6558 20.0216L30.7945 20.5148L31.2841 20.3641L34.6702 19.3225L36.3501 19.9943L34.9645 20.9034L34.7388 21.0515V21.3215V22.7529L19.9698 31.9812L18.6123 30.8361L20.7857 29.6172Z" fill="#EB7575" stroke="white"/>
<rect x="17.8438" y="32.1953" width="23.9675" height="6.91743" transform="rotate(-35.5 17.8438 32.1953)" fill="#EB7575"/>
<path d="M83.2305 41V30.2627H90.4741V31.5298H84.6514V34.855H89.6904V36.1221H84.6514V41H83.2305ZM92.144 41V33.2217H93.3306V34.4009C93.6333 33.8491 93.9116 33.4854 94.1655 33.3096C94.4243 33.1338 94.7075 33.0459 95.0151 33.0459C95.4595 33.0459 95.9111 33.1875 96.3701 33.4707L95.916 34.6938C95.5938 34.5034 95.2715 34.4082 94.9492 34.4082C94.6611 34.4082 94.4023 34.4961 94.1729 34.6719C93.9434 34.8428 93.7798 35.082 93.6821 35.3896C93.5356 35.8584 93.4624 36.3711 93.4624 36.9277V41H92.144ZM96.6631 37.1108C96.6631 35.6704 97.0635 34.6035 97.8643 33.9102C98.5332 33.334 99.3486 33.0459 100.311 33.0459C101.38 33.0459 102.254 33.3975 102.933 34.1006C103.611 34.7988 103.951 35.7656 103.951 37.001C103.951 38.002 103.799 38.7905 103.497 39.3667C103.199 39.938 102.762 40.3823 102.186 40.6997C101.614 41.0171 100.989 41.1758 100.311 41.1758C99.2217 41.1758 98.3403 40.8267 97.6665 40.1284C96.9976 39.4302 96.6631 38.4243 96.6631 37.1108ZM98.0181 37.1108C98.0181 38.1069 98.2354 38.854 98.6699 39.3521C99.1045 39.8452 99.6514 40.0918 100.311 40.0918C100.965 40.0918 101.509 39.8428 101.944 39.3447C102.378 38.8467 102.596 38.0874 102.596 37.0669C102.596 36.105 102.376 35.3774 101.937 34.8843C101.502 34.3862 100.96 34.1372 100.311 34.1372C99.6514 34.1372 99.1045 34.3838 98.6699 34.877C98.2354 35.3701 98.0181 36.1147 98.0181 37.1108ZM105.423 31.6836V30.1528H106.836V31.3613C106.836 32.0156 106.761 32.4868 106.609 32.7749C106.399 33.1704 106.072 33.4683 105.628 33.6685L105.306 33.1484C105.569 33.041 105.765 32.8726 105.892 32.6431C106.023 32.4087 106.097 32.0889 106.111 31.6836H105.423ZM109.056 41V30.2627H110.477V34.6719H116.058V30.2627H117.479V41H116.058V35.939H110.477V41H109.056ZM119.192 37.1108C119.192 35.6704 119.593 34.6035 120.394 33.9102C121.062 33.334 121.878 33.0459 122.84 33.0459C123.909 33.0459 124.783 33.3975 125.462 34.1006C126.141 34.7988 126.48 35.7656 126.48 37.001C126.48 38.002 126.329 38.7905 126.026 39.3667C125.728 39.938 125.291 40.3823 124.715 40.6997C124.144 41.0171 123.519 41.1758 122.84 41.1758C121.751 41.1758 120.87 40.8267 120.196 40.1284C119.527 39.4302 119.192 38.4243 119.192 37.1108ZM120.547 37.1108C120.547 38.1069 120.765 38.854 121.199 39.3521C121.634 39.8452 122.181 40.0918 122.84 40.0918C123.494 40.0918 124.039 39.8428 124.473 39.3447C124.908 38.8467 125.125 38.0874 125.125 37.0669C125.125 36.105 124.905 35.3774 124.466 34.8843C124.031 34.3862 123.489 34.1372 122.84 34.1372C122.181 34.1372 121.634 34.3838 121.199 34.877C120.765 35.3701 120.547 36.1147 120.547 37.1108ZM133.13 41V39.8574C132.525 40.7363 131.702 41.1758 130.662 41.1758C130.203 41.1758 129.773 41.0879 129.373 40.9121C128.978 40.7363 128.682 40.5166 128.487 40.2529C128.296 39.9844 128.162 39.6572 128.084 39.2715C128.03 39.0127 128.003 38.6025 128.003 38.041V33.2217H129.322V37.5356C129.322 38.2241 129.349 38.688 129.402 38.9272C129.485 39.2739 129.661 39.5474 129.93 39.7476C130.198 39.9429 130.53 40.0405 130.926 40.0405C131.321 40.0405 131.692 39.9404 132.039 39.7402C132.386 39.5352 132.63 39.2593 132.771 38.9126C132.918 38.561 132.991 38.0532 132.991 37.3892V33.2217H134.31V41H133.13ZM135.855 38.6782L137.159 38.4731C137.232 38.9956 137.435 39.396 137.767 39.6743C138.104 39.9526 138.572 40.0918 139.173 40.0918C139.778 40.0918 140.228 39.9697 140.521 39.7256C140.813 39.4766 140.96 39.186 140.96 38.854C140.96 38.5562 140.831 38.3218 140.572 38.1509C140.391 38.0337 139.942 37.8848 139.224 37.7041C138.257 37.46 137.586 37.25 137.21 37.0742C136.839 36.8936 136.556 36.647 136.36 36.3345C136.17 36.0171 136.075 35.668 136.075 35.2871C136.075 34.9404 136.153 34.6206 136.309 34.3276C136.47 34.0298 136.688 33.7832 136.961 33.5879C137.166 33.4365 137.444 33.3096 137.796 33.207C138.152 33.0996 138.533 33.0459 138.938 33.0459C139.549 33.0459 140.083 33.1338 140.542 33.3096C141.006 33.4854 141.348 33.7246 141.568 34.0273C141.788 34.3252 141.939 34.7256 142.022 35.2285L140.733 35.4043C140.674 35.0039 140.503 34.6914 140.22 34.4668C139.942 34.2422 139.546 34.1299 139.034 34.1299C138.428 34.1299 137.996 34.23 137.737 34.4302C137.479 34.6304 137.349 34.8647 137.349 35.1333C137.349 35.3042 137.403 35.458 137.51 35.5947C137.618 35.7363 137.786 35.8535 138.016 35.9463C138.147 35.9951 138.536 36.1074 139.18 36.2832C140.113 36.5322 140.762 36.7373 141.128 36.8984C141.5 37.0547 141.79 37.2842 142 37.5869C142.21 37.8896 142.315 38.2656 142.315 38.7148C142.315 39.1543 142.186 39.5693 141.927 39.96C141.673 40.3457 141.304 40.646 140.821 40.8608C140.337 41.0708 139.791 41.1758 139.18 41.1758C138.169 41.1758 137.398 40.9658 136.866 40.5459C136.338 40.126 136.001 39.5034 135.855 38.6782ZM149.207 38.4951L150.569 38.6636C150.354 39.4595 149.957 40.0771 149.375 40.5166C148.794 40.9561 148.052 41.1758 147.149 41.1758C146.011 41.1758 145.108 40.8267 144.439 40.1284C143.775 39.4253 143.443 38.4414 143.443 37.1768C143.443 35.8682 143.78 34.8525 144.454 34.1299C145.127 33.4072 146.001 33.0459 147.076 33.0459C148.116 33.0459 148.965 33.3999 149.625 34.1079C150.284 34.8159 150.613 35.812 150.613 37.0962C150.613 37.1743 150.611 37.2915 150.606 37.4478H144.805C144.854 38.3022 145.096 38.9565 145.53 39.4106C145.965 39.8647 146.507 40.0918 147.156 40.0918C147.64 40.0918 148.052 39.9648 148.394 39.7109C148.736 39.457 149.007 39.0518 149.207 38.4951ZM144.878 36.3638H149.222C149.163 35.7095 148.997 35.2188 148.724 34.8916C148.304 34.3838 147.759 34.1299 147.09 34.1299C146.485 34.1299 145.975 34.3325 145.56 34.7378C145.149 35.1431 144.922 35.6851 144.878 36.3638Z" fill="#EB7575"/>
</svg>
