<svg width="20" height="21" viewBox="0 0 20 21" fill="none" xmlns="http://www.w3.org/2000/svg">
<path d="M3.75 1.89651H4.25V1.39651V0.771008C4.25 0.737594 4.26327 0.70563 4.28675 0.682124C4.31023 0.658633 4.34198 0.645508 4.375 0.645508C4.40802 0.645508 4.43977 0.658633 4.46325 0.682124C4.48673 0.70563 4.5 0.737594 4.5 0.771008V1.39651V1.89651H5H15H15.5V1.39651V0.771008C15.5 0.737593 15.5133 0.705629 15.5368 0.682124C15.5602 0.658633 15.592 0.645508 15.625 0.645508C15.658 0.645508 15.6898 0.658633 15.7132 0.682124C15.7367 0.705629 15.75 0.737593 15.75 0.771008V1.39651V1.89651H16.25H17.5C18.0303 1.89651 18.539 2.10734 18.9141 2.48274C19.2892 2.85816 19.5 3.36742 19.5 3.89851V4.64951H0.5V3.89851C0.5 3.36742 0.710811 2.85816 1.08593 2.48274C1.46103 2.10734 1.9697 1.89651 2.5 1.89651H3.75ZM0.5 6.90051H19.5V17.6595C19.5 18.1906 19.2892 18.6999 18.9141 19.0753C18.539 19.4507 18.0303 19.6615 17.5 19.6615H2.5C1.9697 19.6615 1.46103 19.4507 1.08593 19.0753C0.710811 18.6999 0.5 18.1906 0.5 17.6595V6.90051Z" fill="white" stroke="#EB7575"/>
</svg>
