<svg width="225" height="51" viewBox="0 0 225 51" fill="none" xmlns="http://www.w3.org/2000/svg">
<path opacity="0.05" fill-rule="evenodd" clip-rule="evenodd" d="M218.469 0.0556641C222.061 0.0556641 225 2.8652 225 6.29908L210.306 43.7596C210.094 44.1442 209.893 44.521 209.698 44.8869L209.697 44.8878C208.148 47.7881 206.965 50.003 203.776 50.003H151.531C147.939 50.003 145 47.1935 145 43.7596L159.694 6.29908C159.82 6.05753 159.945 5.81597 160.068 5.57586C161.542 2.71295 162.911 0.0556641 166.224 0.0556641H218.469ZM190.481 20.3149L218.469 6.29908H166.224L179.093 18.6017C182.146 21.5206 186.704 22.2063 190.481 20.3149ZM149.589 45.293H203.776L218.469 10.9816L189.544 26.0224C185.677 28.0333 180.952 27.3076 177.867 24.2287L164.592 10.9816L149.589 45.293ZM2.5 1.11865C1.11929 1.11865 0 2.23794 0 3.61865C0 4.99936 1.11929 6.11865 2.5 6.11865H143.841C145.222 6.11865 146.341 4.99936 146.341 3.61865C146.341 2.23794 145.222 1.11865 143.841 1.11865H2.5ZM35.3008 23.6187C35.3008 22.2379 36.4201 21.1187 37.8008 21.1187H128.837C130.218 21.1187 131.337 22.2379 131.337 23.6187C131.337 24.9994 130.218 26.1187 128.837 26.1187H37.8008C36.4201 26.1187 35.3008 24.9994 35.3008 23.6187ZM63.5 41.1187C62.1193 41.1187 61 42.2379 61 43.6187C61 44.9994 62.1193 46.1187 63.5 46.1187H114.5C115.881 46.1187 117 44.9994 117 43.6187C117 42.2379 115.881 41.1187 114.5 41.1187H63.5Z" fill="#464646"/>
</svg>
