<svg width="20" height="20" viewBox="0 0 20 20" fill="none" xmlns="http://www.w3.org/2000/svg">
<path fill-rule="evenodd" clip-rule="evenodd" d="M5.8 0H14.2C17.4 0 20 2.6 20 5.8V14.2C20 15.7383 19.3889 17.2135 18.3012 18.3012C17.2135 19.3889 15.7383 20 14.2 20H5.8C2.6 20 0 17.4 0 14.2V5.8C0 4.26174 0.61107 2.78649 1.69878 1.69878C2.78649 0.61107 4.26174 0 5.8 0ZM15.25 6.00015C15.9404 6.00015 16.5 5.44051 16.5 4.75015C16.5 4.0598 15.9404 3.50015 15.25 3.50015C14.5596 3.50015 14 4.0598 14 4.75015C14 5.44051 14.5596 6.00015 15.25 6.00015ZM14 9.9998C14 12.2089 12.2091 13.9998 10 13.9998C7.79086 13.9998 6 12.2089 6 9.9998C6 7.79066 7.79086 5.9998 10 5.9998C12.2091 5.9998 14 7.79066 14 9.9998ZM10 12.9998C11.6569 12.9998 13 11.6567 13 9.9998C13 8.34295 11.6569 6.9998 10 6.9998C8.34315 6.9998 7 8.34295 7 9.9998C7 11.6567 8.34315 12.9998 10 12.9998Z" fill="white"/>
</svg>
