<svg width="118" height="133" viewBox="0 0 118 133" fill="none" xmlns="http://www.w3.org/2000/svg">
<path d="M100.209 126.307L90.2551 124.648L71.7723 124.112C69.0722 124.034 66.5631 125.499 65.3051 127.89L64.335 129.733C64.1467 130.09 63.8329 130.366 63.4539 130.506L62.3024 130.933C61.3211 131.296 60.4016 130.271 60.8695 129.335C60.9903 129.093 61.0225 128.817 60.9607 128.554L60.5351 126.745C60.4431 126.354 60.2184 126.007 59.8993 125.763L58.9833 125.063C58.3479 124.577 57.424 124.949 57.3024 125.739C57.2626 125.998 57.1283 126.232 56.9255 126.397L55.7558 127.347C54.9933 127.967 54.064 128.346 53.0857 128.437L47.7632 128.932C47.5576 128.951 47.3569 129.006 47.1701 129.094L46.8906 129.226C45.84 129.72 44.6321 128.953 44.6321 127.792C44.6321 127.372 44.4652 126.969 44.1682 126.672L43.1984 125.702C42.7355 125.24 42.1076 124.979 41.4529 124.979H40.5959C39.9481 124.979 39.386 125.427 39.2403 126.058L39.1398 126.493C39.053 126.87 38.7179 127.136 38.3317 127.136C37.8125 127.136 37.4209 126.664 37.5166 126.154L37.6297 125.551C37.7338 124.995 37.3076 124.482 36.7422 124.482C36.2436 124.482 35.8393 124.078 35.8393 123.579V121.63C35.8393 121.006 35.3335 120.5 34.7095 120.5C34.3742 120.5 34.0562 120.649 33.8415 120.907L33.4844 121.335C32.8985 122.038 31.9541 122.331 31.0731 122.084L28.6985 121.416C27.7231 121.141 26.8309 120.629 26.1019 119.926L22.757 116.696C22.5297 116.477 22.4013 116.174 22.4013 115.858V115.515C22.4013 115.061 22.0337 114.694 21.5801 114.694C21.3623 114.694 21.1535 114.78 20.9995 114.934L20.3781 115.556C19.8801 116.053 19.1662 116.27 18.4756 116.132L17.7493 115.986C16.9455 115.825 16.4461 115.017 16.6618 114.227C16.7266 113.989 16.8522 113.772 17.0263 113.598L19.0161 111.609C19.3534 111.271 19.4371 110.756 19.2237 110.329C19.036 109.954 18.6522 109.717 18.2324 109.717H14.639C14.1615 109.717 13.7744 109.329 13.7744 108.852C13.7744 108.563 13.63 108.293 13.3895 108.133L13.0279 107.892C12.5615 107.581 12.2813 107.057 12.2813 106.497V105.513C12.2813 105.329 12.2957 105.146 12.3243 104.965L12.6656 102.804C12.7402 102.331 12.9238 101.882 13.2018 101.493L14.0464 100.311C14.2821 99.9807 14.2892 99.5392 14.0642 99.2017C13.8832 98.9301 13.5784 98.767 13.2519 98.767H6.99288C6.86913 98.767 6.74585 98.7518 6.62579 98.7218L6.30126 98.6407C5.81821 98.5199 5.47934 98.0859 5.47934 97.588C5.47934 97.2823 5.60831 96.9907 5.83452 96.7851L7.23433 95.5126C7.27887 95.4721 7.30426 95.4147 7.30426 95.3545C7.30426 95.2276 7.1944 95.1287 7.06826 95.142L5.97033 95.2576C5.10897 95.3483 4.43508 94.5294 4.68979 93.7016L4.74921 93.5085C4.79325 93.3653 4.86096 93.2306 4.94952 93.1098L6.39869 91.1337C6.55589 90.9193 6.64065 90.6604 6.64065 90.3946C6.64065 89.7043 6.08108 89.1447 5.3908 89.1447H5.20411C4.94976 89.1447 4.69997 89.2122 4.48027 89.3404L3.25548 90.0549C2.97762 90.2169 2.65098 90.2744 2.33449 90.2169C1.59866 90.0831 1.11214 89.3762 1.24996 88.6411L1.403 87.8249C1.46528 87.4927 1.6041 87.1797 1.80845 86.9105L7.16997 79.849C7.86826 78.9293 8.01864 77.7054 7.56376 76.644L7.53189 76.5696C7.3817 76.2192 7.30426 75.8419 7.30426 75.4606C7.30426 74.4799 7.81465 73.5699 8.65149 73.0585L9.51338 72.5317C10.0216 72.2212 10.6056 72.0569 11.2012 72.0569H13.9739C14.2302 72.0569 14.438 71.8491 14.438 71.5927C14.438 71.3784 14.2912 71.1919 14.0828 71.1416L10.5206 70.2818C9.94775 70.1435 9.45194 69.7861 9.13961 69.2864C8.91596 68.9286 8.79738 68.5151 8.79738 68.0931V64.7474C8.79738 64.2068 8.68495 63.6721 8.46723 63.1773L7.36161 60.6646C7.14366 60.1692 7.35268 59.59 7.83672 59.348C8.12754 59.2026 8.47041 59.2053 8.75889 59.3553L9.33141 59.653C10.7962 60.4147 12.5598 59.4157 12.6597 57.7678L12.7494 56.287C12.769 55.9632 12.8371 55.6441 12.9515 55.3404L18.0469 41.8057C18.0742 41.7332 18.1072 41.6631 18.1456 41.5959C18.8147 40.4248 20.5783 40.711 20.8428 42.0336L20.9952 42.7953C21.0461 43.0502 21.1854 43.279 21.3884 43.4414C22.0172 43.9444 22.9555 43.6277 23.1508 42.8466L23.4657 41.5867C23.5297 41.331 23.645 41.0911 23.8048 40.8815L32.6055 29.3396C33.1458 28.631 34.2138 28.6352 34.7485 29.3482L36.0612 31.0985C36.4153 31.5706 37.1665 31.3202 37.1665 30.7301C37.1665 30.5326 37.2615 30.3472 37.4218 30.2318L38.4634 29.4818C38.9371 29.1407 39.503 29.7579 39.1446 30.2187C39.0495 30.3409 39.0209 30.5038 39.0699 30.6508C39.1826 30.9889 39.6189 31.0784 39.8556 30.812L41.4376 29.0324C41.6264 28.8199 41.9777 28.9535 41.9777 29.2377C41.9777 29.4708 42.2259 29.6201 42.4318 29.5107L46.866 27.155C47.1449 27.0068 47.4436 26.8991 47.7529 26.8351L51.7491 26.0083C51.9787 25.9608 52.216 25.9638 52.4444 26.0171L55.3748 26.7009C55.927 26.8297 55.9954 27.5881 55.4792 27.8228C55.3335 27.889 55.2211 28.0133 55.1705 28.1651L55.1333 28.2765C55.0274 28.5943 55.264 28.9224 55.5989 28.9224C55.6958 28.9224 55.7905 28.8938 55.8712 28.84L56.6369 28.3295C56.9928 28.0922 57.4639 28.1241 57.7848 28.4071L58.7855 29.2902C59.1748 29.6336 59.7743 29.269 59.6484 28.7654C59.5968 28.559 59.6739 28.3417 59.8442 28.2141L61.0733 27.2922C61.3903 27.0544 61.7536 26.8856 62.1397 26.7965L63.1088 26.5728C63.5063 26.4811 63.9179 26.4684 64.3202 26.5355L65.7082 26.7668C66.2904 26.8638 66.8645 26.5549 67.1042 26.0156C67.266 25.6514 67.5866 25.382 67.9733 25.2853L68.5524 25.1406C69.0505 25.016 69.5778 25.153 69.9524 25.5042L71.1913 26.6657C71.7177 27.1592 72.0549 27.8213 72.1444 28.5372L72.1739 28.7737C72.2769 29.5976 72.7647 30.3239 73.4884 30.731C74.4007 31.2442 75.5311 31.1647 76.3626 30.5288L77.5528 29.6187C77.724 29.4878 77.9207 29.3942 78.1303 29.3438L80.9201 28.6743C81.2909 28.5853 81.5783 28.9973 81.3668 29.3145L81.334 29.3637C81.3095 29.4005 81.2964 29.4437 81.2964 29.4879C81.2964 29.6946 81.5526 29.7909 81.6887 29.6353L82.9535 28.1899C83.3136 27.7783 83.9469 27.7572 84.3336 28.144L86.0651 29.8754C86.1985 30.0088 86.2734 30.1897 86.2734 30.3784C86.2734 31.0508 87.1202 31.3479 87.5403 30.8228L90.0633 27.6691C90.5196 27.0987 91.3704 27.0515 91.8869 27.5681C92.1168 27.7979 92.2459 28.1096 92.2459 28.4347V30.8531C92.2459 32.1993 93.0444 33.4172 94.2789 33.9539C95.3827 34.4338 96.1481 35.4643 96.2887 36.6596L96.5912 39.2309C96.6676 39.8802 97.218 40.3696 97.8718 40.3696C97.9917 40.3696 98.1109 40.3529 98.2261 40.32L99.4198 39.979C100.052 39.7983 100.71 39.7247 101.367 39.7611L102.329 39.8146C102.998 39.8518 103.637 40.1084 104.146 40.5449L104.195 40.5869C104.412 40.7726 104.597 40.9921 104.744 41.2369L105.117 41.8578C105.366 42.2726 105.814 42.5264 106.298 42.5264H107.018C107.38 42.5264 107.675 42.8206 107.675 43.1836C107.675 43.3958 107.572 43.595 107.4 43.7184L106.434 44.4079C105.746 44.8996 104.88 45.0736 104.056 44.8861L102.006 44.4203C101.814 44.3766 101.612 44.4214 101.457 44.5424C100.995 44.9014 101.197 45.6392 101.777 45.7135L106.551 46.3257C106.636 46.3366 106.721 46.3551 106.803 46.381L106.97 46.4339C108.088 46.7869 108.271 48.291 107.271 48.9022L107.02 49.0557C106.907 49.1246 106.822 49.2312 106.78 49.3566C106.718 49.5447 106.759 49.7519 106.889 49.9015L108.509 51.7644C109.398 52.7871 110.841 53.1284 112.095 52.6123L112.719 52.3551C112.784 52.3285 112.841 52.2864 112.886 52.2327L113.063 52.0199C113.261 51.7826 113.647 51.9224 113.647 52.2313C113.647 52.2859 113.634 52.3397 113.608 52.3879L110.709 57.7716C110.382 58.3782 110.475 59.1251 110.941 59.633L111.373 60.1048C111.717 60.4799 111.705 61.0592 111.345 61.4189C111.223 61.5407 111.07 61.6271 110.903 61.6689L109.971 61.902C109.879 61.925 109.783 61.9294 109.69 61.915C109.023 61.8125 108.6 62.6073 109.057 63.1029L109.466 63.5453C109.596 63.6861 109.766 63.783 109.954 63.8225L112.122 64.2789C112.585 64.3763 113.056 64.4254 113.529 64.4254H115.082C115.12 64.4254 115.158 64.4164 115.193 64.3991L115.411 64.2898C115.592 64.1996 115.771 64.4141 115.65 64.5754C115.642 64.586 115.633 64.5957 115.623 64.6043L110.519 69.0899C110.29 69.2913 109.995 69.4024 109.69 69.4024H108.455C107.98 69.4024 107.696 69.9323 107.96 70.3279C107.991 70.3743 108.028 70.4161 108.071 70.4521L109.15 71.3655C109.496 71.658 109.289 72.2228 108.836 72.2228H107.059C106.917 72.2228 106.777 72.1981 106.645 72.1499L105.576 71.7614C105.306 71.6631 105.02 71.8633 105.02 72.151C105.02 72.1985 105.028 72.2456 105.044 72.2904L105.85 74.5454C106.181 75.9786 106.348 77.4446 106.348 78.9155V81.3473V82.3205L106.075 83.1594H107.343L108.311 80.3648L108.836 74.7757L110.547 81.4826L113.341 75.8935V84.2772L108.836 88.1896H105.516L108.007 92.4611L110.575 94.0256C113.687 95.9219 113.453 100.515 110.163 102.085L109.5 102.583V103.744C111.928 104.064 113.317 106.681 112.222 108.872L111.664 109.987C113.645 112.628 111.633 116.387 108.338 116.187V120.832L104.854 124.648L100.209 126.307Z" fill="white" stroke="#876464" stroke-width="2"/>
<path d="M41.1256 21.3769L33.7779 10.4835C32.4353 8.49306 29.7334 7.96786 27.743 9.31042C25.7525 10.653 25.2273 13.3549 26.5699 15.3454L34.0306 26.4064C35.5918 28.7208 34.9811 31.8626 32.6666 33.4237L29.8108 35.35C29.0736 35.8473 28.879 36.8481 29.3763 37.5853C29.8736 38.3226 30.8744 38.5171 31.6117 38.0198L31.953 37.7896L45.287 57.5581C45.6929 58.1598 46.5098 58.3186 47.1116 57.9127C47.7133 57.5068 47.8721 56.69 47.4662 56.0882L34.1322 36.3197L36.479 34.7368L49.813 54.5053C50.2189 55.107 51.0358 55.2658 51.6375 54.8599C52.2393 54.454 52.3981 53.6372 51.9922 53.0354L38.6581 33.2669L41.3402 31.4578L54.6177 51.1425C55.0548 51.7906 55.9345 51.9616 56.5825 51.5245C57.2306 51.0874 57.4016 50.2077 56.9645 49.5596L43.687 29.8749L45.8661 28.4051L59.1436 48.0897C59.5807 48.7378 60.4604 48.9088 61.1085 48.4717C61.7565 48.0346 61.9275 47.1549 61.4904 46.5068L48.2129 26.8221L50.7273 25.1261L64.0048 44.8108C64.4419 45.4589 65.3216 45.6299 65.9697 45.1928C66.6177 44.7556 66.7887 43.8759 66.3516 43.2279L53.0741 23.5432L53.2479 23.426C53.9851 22.9287 54.1796 21.9279 53.6824 21.1907C53.1851 20.4534 52.1843 20.2589 51.447 20.7562L48.4236 22.7955C46.0166 24.4191 42.7491 23.7839 41.1256 21.3769Z" fill="white" stroke="#876464"/>
<path d="M39.4248 53.7194L34.1816 56.66L38.2739 60.1119L66.9196 42.2128V39.0166L71.0118 36.3317L65.8965 34.2861L59.2466 36.3317L58.0957 32.2405L54.1313 36.3317V40.8065L51.5737 39.528L48.3766 38.1216H45.3074V42.2128V47.4547L41.3431 49.6282L38.2739 45.9205L37.1229 49.6282L39.4248 53.7194Z" fill="white"/>
<path d="M39.4248 42.2128L38.2739 45.9205M38.2739 45.9205L37.1229 49.6282L39.4248 53.7194L34.1816 56.66L38.2739 60.1119L66.9196 42.2128V39.0166L71.0118 36.3317L65.8965 34.2861L59.2466 36.3317L58.0957 32.2405L54.1313 36.3317V40.8065L51.5737 39.528L48.3766 38.1216H45.3074V42.2128V47.4547L41.3431 49.6282L38.2739 45.9205Z" stroke="#876464"/>
<rect x="34.3789" y="59.3578" width="44.8356" height="12.9403" transform="rotate(-35.5 34.3789 59.3578)" fill="white"/>
</svg>
