<svg width="63" height="71" viewBox="0 0 63 71" fill="none" xmlns="http://www.w3.org/2000/svg">
<mask id="path-1-inside-1" fill="white">
<path d="M53.0336 67.9848L47.7125 67.0979L37.8323 66.8115C36.389 66.7697 35.0477 67.5532 34.3752 68.8309L33.8566 69.8162C33.756 70.0074 33.5882 70.1547 33.3856 70.2298L32.77 70.4577C32.2455 70.652 31.7539 70.1038 32.0041 69.6035C32.0686 69.4744 32.0859 69.3268 32.0528 69.1863L31.8253 68.2193C31.7761 68.0103 31.656 67.8248 31.4854 67.6943L30.9958 67.3199C30.6561 67.0601 30.1622 67.2589 30.0972 67.6816C30.076 67.8196 30.0042 67.9449 29.8958 68.0329L29.2705 68.541C28.8629 68.8722 28.3661 69.0749 27.8431 69.1236L24.9979 69.3883C24.888 69.3985 24.7807 69.4278 24.6809 69.4747L24.5314 69.5451C23.9698 69.8093 23.3242 69.3996 23.3242 68.7789C23.3242 68.5543 23.2349 68.339 23.0762 68.1802L22.5577 67.6618C22.3103 67.4143 21.9746 67.2753 21.6247 67.2753H21.1665C20.8202 67.2753 20.5198 67.5143 20.4419 67.8517L20.3882 68.0845C20.3417 68.2857 20.1626 68.4282 19.9562 68.4282C19.6786 68.4282 19.4693 68.176 19.5205 67.9032L19.5809 67.5808C19.6366 67.2838 19.4087 67.0092 19.1065 67.0092C18.8399 67.0092 18.6239 66.7931 18.6239 66.5266V65.4847C18.6239 65.1512 18.3534 64.8808 18.0199 64.8808C17.8406 64.8808 17.6707 64.9604 17.5559 65.0981L17.365 65.3272C17.0518 65.703 16.5469 65.8597 16.076 65.7273L14.8066 65.3703C14.2852 65.2236 13.8083 64.9499 13.4186 64.5736L11.6305 62.8472C11.509 62.7299 11.4404 62.5683 11.4404 62.3994V62.2158C11.4404 61.9733 11.2438 61.7768 11.0014 61.7768C10.885 61.7768 10.7733 61.8231 10.691 61.9054L10.3588 62.2376C10.0926 62.5038 9.71099 62.6193 9.34185 62.5455L8.95359 62.4678C8.5239 62.3819 8.25693 61.9499 8.37223 61.5272C8.40686 61.4002 8.47403 61.2844 8.5671 61.1914L9.63076 60.1277C9.81109 59.9474 9.85579 59.6719 9.74174 59.4438C9.64138 59.243 9.43622 59.1163 9.2118 59.1163H7.29089C7.03566 59.1163 6.82875 58.9093 6.82875 58.6541C6.82875 58.4996 6.75152 58.3553 6.62295 58.2696L6.42966 58.1407C6.18034 57.9745 6.03058 57.6947 6.03058 57.395V56.8692C6.03058 56.771 6.03827 56.6731 6.05357 56.5762L6.23599 55.4208C6.27587 55.1683 6.37402 54.9284 6.52265 54.7203L6.97412 54.0883C7.10014 53.9118 7.10395 53.6758 6.98368 53.4954C6.88688 53.3503 6.72394 53.263 6.54944 53.263H3.20358C3.13743 53.263 3.07152 53.2549 3.00735 53.2389L2.83386 53.1955C2.57564 53.131 2.3945 52.899 2.3945 52.6328C2.3945 52.4694 2.46344 52.3135 2.58436 52.2036L3.33265 51.5233C3.35646 51.5017 3.37003 51.471 3.37003 51.4388C3.37003 51.371 3.3113 51.3182 3.24387 51.3253L2.65696 51.387C2.19651 51.4355 1.83627 50.9978 1.97243 50.5553L2.00419 50.452C2.02773 50.3755 2.06393 50.3035 2.11127 50.2389L2.88594 49.1825C2.96998 49.068 3.01529 48.9295 3.01529 48.7874C3.01529 48.4184 2.71616 48.1193 2.34716 48.1193H2.24736C2.1114 48.1193 1.97787 48.1554 1.86043 48.2239L1.2057 48.6058C1.05717 48.6925 0.882556 48.7232 0.71337 48.6924C0.320023 48.6209 0.0599433 48.243 0.133621 47.8501L0.215431 47.4138C0.248722 47.2362 0.322929 47.0689 0.432167 46.925L3.29824 43.1502C3.67152 42.6585 3.75191 42.0043 3.50875 41.4369L3.49171 41.3971C3.41143 41.2098 3.37003 41.0081 3.37003 40.8043C3.37003 40.28 3.64286 39.7936 4.09021 39.5202L4.55095 39.2386C4.82262 39.0726 5.13482 38.9848 5.4532 38.9848H6.93539C7.07241 38.9848 7.18349 38.8737 7.18349 38.7367C7.18349 38.6221 7.105 38.5224 6.99361 38.4955L5.08937 38.0359C4.78314 37.9619 4.5181 37.7709 4.35114 37.5038C4.23159 37.3125 4.1682 37.0915 4.1682 36.8659V35.0774C4.1682 34.7884 4.10809 34.5026 3.99171 34.2381L3.40069 32.8949C3.28418 32.6301 3.39592 32.3204 3.65466 32.1911C3.81012 32.1133 3.99341 32.1148 4.14762 32.195L4.45367 32.3541C5.23668 32.7613 6.17944 32.2273 6.23283 31.3463L6.28081 30.5548C6.2913 30.3817 6.32771 30.2111 6.38882 30.0488L9.11265 22.8136C9.12723 22.7749 9.14487 22.7374 9.1654 22.7014C9.52311 22.0754 10.4659 22.2284 10.6073 22.9354L10.6887 23.3426C10.7159 23.4789 10.7904 23.6012 10.8989 23.688C11.235 23.9569 11.7366 23.7876 11.841 23.37L12.0094 22.6965C12.0435 22.5598 12.1052 22.4316 12.1906 22.3195L16.8952 16.1497C17.184 15.7709 17.7549 15.7731 18.0407 16.1542L18.7425 17.0899C18.9317 17.3423 19.3333 17.2084 19.3333 16.893C19.3333 16.7874 19.3841 16.6883 19.4698 16.6266L20.0266 16.2257C20.2798 16.0434 20.5823 16.3733 20.3907 16.6196C20.3399 16.6849 20.3246 16.772 20.3508 16.8506C20.411 17.0313 20.6443 17.0792 20.7708 16.9368L21.6165 15.9854C21.7174 15.8719 21.9052 15.9433 21.9052 16.0952C21.9052 16.2198 22.0379 16.2996 22.1479 16.2411L24.5183 14.9819C24.6674 14.9027 24.8271 14.8451 24.9924 14.8109L27.1286 14.3689C27.2514 14.3435 27.3782 14.3451 27.5003 14.3736L29.0668 14.7391C29.362 14.808 29.3985 15.2134 29.1226 15.3388C29.0447 15.3742 28.9846 15.4407 28.9576 15.5218L28.9377 15.5813C28.8811 15.7512 29.0075 15.9267 29.1866 15.9267C29.2384 15.9267 29.289 15.9113 29.3321 15.8826L29.7415 15.6097C29.9318 15.4829 30.1836 15.4999 30.3551 15.6512L30.8901 16.1232C31.0982 16.3068 31.4186 16.1119 31.3513 15.8427C31.3237 15.7324 31.365 15.6162 31.456 15.548L32.113 15.0552C32.2825 14.9281 32.4767 14.8378 32.6831 14.7902L33.2011 14.6706C33.4136 14.6216 33.6336 14.6148 33.8487 14.6507L34.5907 14.7743C34.9019 14.8262 35.2088 14.661 35.3369 14.3727C35.4234 14.1781 35.5948 14.0341 35.8015 13.9824L36.1111 13.905C36.3773 13.8384 36.6592 13.9116 36.8594 14.0994L37.5218 14.7203C37.8031 14.9841 37.9834 15.338 38.0312 15.7207L38.047 15.8471C38.1021 16.2876 38.3628 16.6758 38.7497 16.8935C39.2374 17.1678 39.8416 17.1253 40.2861 16.7854L40.9223 16.2989C41.0139 16.2289 41.119 16.1788 41.2311 16.1519L42.7224 15.794C42.9206 15.7464 43.0742 15.9667 42.9612 16.1363L42.9436 16.1626C42.9305 16.1822 42.9235 16.2053 42.9235 16.2289C42.9235 16.3394 43.0605 16.3909 43.1333 16.3078L43.8094 15.5351C44.0019 15.315 44.3404 15.3038 44.5472 15.5105L45.4727 16.4361C45.544 16.5074 45.5841 16.6041 45.5841 16.705C45.5841 17.0644 46.0368 17.2232 46.2613 16.9425L47.61 15.2567C47.8539 14.9517 48.3088 14.9265 48.5849 15.2027C48.7077 15.3255 48.7768 15.4922 48.7768 15.6659V16.9587C48.7768 17.6783 49.2036 18.3294 49.8635 18.6163C50.4536 18.8728 50.8628 19.4237 50.9379 20.0627L51.0996 21.4372C51.1405 21.7843 51.4347 22.0459 51.7842 22.0459C51.8482 22.0459 51.912 22.037 51.9736 22.0194L52.6117 21.8371C52.9497 21.7405 53.3015 21.7011 53.6526 21.7206L54.1667 21.7492C54.5247 21.7691 54.8661 21.9063 55.1384 22.1396L55.1645 22.162C55.2804 22.2614 55.3795 22.3787 55.458 22.5095L55.6571 22.8414C55.7902 23.0632 56.0298 23.1988 56.2883 23.1988H56.6731C56.8672 23.1988 57.0245 23.3561 57.0245 23.5501C57.0245 23.6636 56.9697 23.7701 56.8773 23.836L56.3613 24.2047C55.9933 24.4674 55.5307 24.5605 55.0898 24.4603L53.9941 24.2112C53.8914 24.1879 53.7836 24.2119 53.7004 24.2765C53.4537 24.4685 53.5615 24.8628 53.8715 24.9026L56.4238 25.2298C56.4694 25.2356 56.5144 25.2455 56.5583 25.2594L56.6478 25.2877C57.2452 25.4763 57.3433 26.2804 56.8087 26.6071L56.6744 26.6892C56.6141 26.726 56.5688 26.783 56.5464 26.85C56.5129 26.9506 56.535 27.0614 56.6046 27.1413L57.4705 28.1371C57.9459 28.6839 58.7172 28.8663 59.3872 28.5904L59.721 28.4529C59.7556 28.4387 59.7862 28.4162 59.8102 28.3875L59.905 28.2737C60.0107 28.1469 60.2171 28.2216 60.2171 28.3867C60.2171 28.416 60.2099 28.4447 60.196 28.4704L58.6464 31.3484C58.4718 31.6726 58.5215 32.0719 58.7704 32.3434L59.0016 32.5956C59.1854 32.7961 59.1787 33.1058 58.9863 33.2981C58.9212 33.3632 58.8397 33.4094 58.7503 33.4317L58.2518 33.5564C58.2027 33.5686 58.1516 33.571 58.1015 33.5633C57.7451 33.5085 57.519 33.9334 57.7636 34.1983L57.9818 34.4348C58.0513 34.5101 58.1426 34.5619 58.2428 34.583L59.4018 34.827C59.6491 34.879 59.9011 34.9052 60.1537 34.9052H60.9839C61.0045 34.9052 61.0249 34.9004 61.0434 34.8912L61.1602 34.8328C61.2567 34.7845 61.3524 34.8992 61.2877 34.9855C61.2835 34.9911 61.2787 34.9963 61.2734 35.0009L58.5448 37.3987C58.4223 37.5064 58.2648 37.5658 58.1016 37.5658H57.4417C57.1875 37.5658 57.0359 37.8491 57.1769 38.0605C57.1934 38.0853 57.2134 38.1077 57.2361 38.1269L57.8131 38.6152C57.9979 38.7715 57.8874 39.0734 57.6453 39.0734H56.6951C56.6196 39.0734 56.5448 39.0603 56.4739 39.0345L55.9028 38.8268C55.7583 38.7743 55.6055 38.8813 55.6055 39.0351C55.6055 39.0605 55.6099 39.0857 55.6184 39.1096L56.0489 40.315C56.2257 41.0812 56.315 41.8649 56.315 42.6511V43.9511V44.4713L56.1695 44.9198H56.8471L57.3646 43.4259L57.6453 40.4382L58.5597 44.0234L60.0535 41.0357V45.5173L57.6453 47.6087H55.8707L57.2018 49.8921L58.5746 50.7285C60.2385 51.7422 60.1132 54.1977 58.3547 55.0367L58 55.3028V55.9236C59.298 56.0948 60.0407 57.4938 59.4552 58.6649L59.1572 59.2609C60.2159 60.6725 59.1405 62.6819 57.3792 62.575V65.0582L55.5168 67.0979L53.0336 67.9848Z"/>
</mask>
<path d="M53.0336 67.9848L47.7125 67.0979L37.8323 66.8115C36.389 66.7697 35.0477 67.5532 34.3752 68.8309L33.8566 69.8162C33.756 70.0074 33.5882 70.1547 33.3856 70.2298L32.77 70.4577C32.2455 70.652 31.7539 70.1038 32.0041 69.6035C32.0686 69.4744 32.0859 69.3268 32.0528 69.1863L31.8253 68.2193C31.7761 68.0103 31.656 67.8248 31.4854 67.6943L30.9958 67.3199C30.6561 67.0601 30.1622 67.2589 30.0972 67.6816C30.076 67.8196 30.0042 67.9449 29.8958 68.0329L29.2705 68.541C28.8629 68.8722 28.3661 69.0749 27.8431 69.1236L24.9979 69.3883C24.888 69.3985 24.7807 69.4278 24.6809 69.4747L24.5314 69.5451C23.9698 69.8093 23.3242 69.3996 23.3242 68.7789C23.3242 68.5543 23.2349 68.339 23.0762 68.1802L22.5577 67.6618C22.3103 67.4143 21.9746 67.2753 21.6247 67.2753H21.1665C20.8202 67.2753 20.5198 67.5143 20.4419 67.8517L20.3882 68.0845C20.3417 68.2857 20.1626 68.4282 19.9562 68.4282C19.6786 68.4282 19.4693 68.176 19.5205 67.9032L19.5809 67.5808C19.6366 67.2838 19.4087 67.0092 19.1065 67.0092C18.8399 67.0092 18.6239 66.7931 18.6239 66.5266V65.4847C18.6239 65.1512 18.3534 64.8808 18.0199 64.8808C17.8406 64.8808 17.6707 64.9604 17.5559 65.0981L17.365 65.3272C17.0518 65.703 16.5469 65.8597 16.076 65.7273L14.8066 65.3703C14.2852 65.2236 13.8083 64.9499 13.4186 64.5736L11.6305 62.8472C11.509 62.7299 11.4404 62.5683 11.4404 62.3994V62.2158C11.4404 61.9733 11.2438 61.7768 11.0014 61.7768C10.885 61.7768 10.7733 61.8231 10.691 61.9054L10.3588 62.2376C10.0926 62.5038 9.71099 62.6193 9.34185 62.5455L8.95359 62.4678C8.5239 62.3819 8.25693 61.9499 8.37223 61.5272C8.40686 61.4002 8.47403 61.2844 8.5671 61.1914L9.63076 60.1277C9.81109 59.9474 9.85579 59.6719 9.74174 59.4438C9.64138 59.243 9.43622 59.1163 9.2118 59.1163H7.29089C7.03566 59.1163 6.82875 58.9093 6.82875 58.6541C6.82875 58.4996 6.75152 58.3553 6.62295 58.2696L6.42966 58.1407C6.18034 57.9745 6.03058 57.6947 6.03058 57.395V56.8692C6.03058 56.771 6.03827 56.6731 6.05357 56.5762L6.23599 55.4208C6.27587 55.1683 6.37402 54.9284 6.52265 54.7203L6.97412 54.0883C7.10014 53.9118 7.10395 53.6758 6.98368 53.4954C6.88688 53.3503 6.72394 53.263 6.54944 53.263H3.20358C3.13743 53.263 3.07152 53.2549 3.00735 53.2389L2.83386 53.1955C2.57564 53.131 2.3945 52.899 2.3945 52.6328C2.3945 52.4694 2.46344 52.3135 2.58436 52.2036L3.33265 51.5233C3.35646 51.5017 3.37003 51.471 3.37003 51.4388C3.37003 51.371 3.3113 51.3182 3.24387 51.3253L2.65696 51.387C2.19651 51.4355 1.83627 50.9978 1.97243 50.5553L2.00419 50.452C2.02773 50.3755 2.06393 50.3035 2.11127 50.2389L2.88594 49.1825C2.96998 49.068 3.01529 48.9295 3.01529 48.7874C3.01529 48.4184 2.71616 48.1193 2.34716 48.1193H2.24736C2.1114 48.1193 1.97787 48.1554 1.86043 48.2239L1.2057 48.6058C1.05717 48.6925 0.882556 48.7232 0.71337 48.6924C0.320023 48.6209 0.0599433 48.243 0.133621 47.8501L0.215431 47.4138C0.248722 47.2362 0.322929 47.0689 0.432167 46.925L3.29824 43.1502C3.67152 42.6585 3.75191 42.0043 3.50875 41.4369L3.49171 41.3971C3.41143 41.2098 3.37003 41.0081 3.37003 40.8043C3.37003 40.28 3.64286 39.7936 4.09021 39.5202L4.55095 39.2386C4.82262 39.0726 5.13482 38.9848 5.4532 38.9848H6.93539C7.07241 38.9848 7.18349 38.8737 7.18349 38.7367C7.18349 38.6221 7.105 38.5224 6.99361 38.4955L5.08937 38.0359C4.78314 37.9619 4.5181 37.7709 4.35114 37.5038C4.23159 37.3125 4.1682 37.0915 4.1682 36.8659V35.0774C4.1682 34.7884 4.10809 34.5026 3.99171 34.2381L3.40069 32.8949C3.28418 32.6301 3.39592 32.3204 3.65466 32.1911C3.81012 32.1133 3.99341 32.1148 4.14762 32.195L4.45367 32.3541C5.23668 32.7613 6.17944 32.2273 6.23283 31.3463L6.28081 30.5548C6.2913 30.3817 6.32771 30.2111 6.38882 30.0488L9.11265 22.8136C9.12723 22.7749 9.14487 22.7374 9.1654 22.7014C9.52311 22.0754 10.4659 22.2284 10.6073 22.9354L10.6887 23.3426C10.7159 23.4789 10.7904 23.6012 10.8989 23.688C11.235 23.9569 11.7366 23.7876 11.841 23.37L12.0094 22.6965C12.0435 22.5598 12.1052 22.4316 12.1906 22.3195L16.8952 16.1497C17.184 15.7709 17.7549 15.7731 18.0407 16.1542L18.7425 17.0899C18.9317 17.3423 19.3333 17.2084 19.3333 16.893C19.3333 16.7874 19.3841 16.6883 19.4698 16.6266L20.0266 16.2257C20.2798 16.0434 20.5823 16.3733 20.3907 16.6196C20.3399 16.6849 20.3246 16.772 20.3508 16.8506C20.411 17.0313 20.6443 17.0792 20.7708 16.9368L21.6165 15.9854C21.7174 15.8719 21.9052 15.9433 21.9052 16.0952C21.9052 16.2198 22.0379 16.2996 22.1479 16.2411L24.5183 14.9819C24.6674 14.9027 24.8271 14.8451 24.9924 14.8109L27.1286 14.3689C27.2514 14.3435 27.3782 14.3451 27.5003 14.3736L29.0668 14.7391C29.362 14.808 29.3985 15.2134 29.1226 15.3388C29.0447 15.3742 28.9846 15.4407 28.9576 15.5218L28.9377 15.5813C28.8811 15.7512 29.0075 15.9267 29.1866 15.9267C29.2384 15.9267 29.289 15.9113 29.3321 15.8826L29.7415 15.6097C29.9318 15.4829 30.1836 15.4999 30.3551 15.6512L30.8901 16.1232C31.0982 16.3068 31.4186 16.1119 31.3513 15.8427C31.3237 15.7324 31.365 15.6162 31.456 15.548L32.113 15.0552C32.2825 14.9281 32.4767 14.8378 32.6831 14.7902L33.2011 14.6706C33.4136 14.6216 33.6336 14.6148 33.8487 14.6507L34.5907 14.7743C34.9019 14.8262 35.2088 14.661 35.3369 14.3727C35.4234 14.1781 35.5948 14.0341 35.8015 13.9824L36.1111 13.905C36.3773 13.8384 36.6592 13.9116 36.8594 14.0994L37.5218 14.7203C37.8031 14.9841 37.9834 15.338 38.0312 15.7207L38.047 15.8471C38.1021 16.2876 38.3628 16.6758 38.7497 16.8935C39.2374 17.1678 39.8416 17.1253 40.2861 16.7854L40.9223 16.2989C41.0139 16.2289 41.119 16.1788 41.2311 16.1519L42.7224 15.794C42.9206 15.7464 43.0742 15.9667 42.9612 16.1363L42.9436 16.1626C42.9305 16.1822 42.9235 16.2053 42.9235 16.2289C42.9235 16.3394 43.0605 16.3909 43.1333 16.3078L43.8094 15.5351C44.0019 15.315 44.3404 15.3038 44.5472 15.5105L45.4727 16.4361C45.544 16.5074 45.5841 16.6041 45.5841 16.705C45.5841 17.0644 46.0368 17.2232 46.2613 16.9425L47.61 15.2567C47.8539 14.9517 48.3088 14.9265 48.5849 15.2027C48.7077 15.3255 48.7768 15.4922 48.7768 15.6659V16.9587C48.7768 17.6783 49.2036 18.3294 49.8635 18.6163C50.4536 18.8728 50.8628 19.4237 50.9379 20.0627L51.0996 21.4372C51.1405 21.7843 51.4347 22.0459 51.7842 22.0459C51.8482 22.0459 51.912 22.037 51.9736 22.0194L52.6117 21.8371C52.9497 21.7405 53.3015 21.7011 53.6526 21.7206L54.1667 21.7492C54.5247 21.7691 54.8661 21.9063 55.1384 22.1396L55.1645 22.162C55.2804 22.2614 55.3795 22.3787 55.458 22.5095L55.6571 22.8414C55.7902 23.0632 56.0298 23.1988 56.2883 23.1988H56.6731C56.8672 23.1988 57.0245 23.3561 57.0245 23.5501C57.0245 23.6636 56.9697 23.7701 56.8773 23.836L56.3613 24.2047C55.9933 24.4674 55.5307 24.5605 55.0898 24.4603L53.9941 24.2112C53.8914 24.1879 53.7836 24.2119 53.7004 24.2765C53.4537 24.4685 53.5615 24.8628 53.8715 24.9026L56.4238 25.2298C56.4694 25.2356 56.5144 25.2455 56.5583 25.2594L56.6478 25.2877C57.2452 25.4763 57.3433 26.2804 56.8087 26.6071L56.6744 26.6892C56.6141 26.726 56.5688 26.783 56.5464 26.85C56.5129 26.9506 56.535 27.0614 56.6046 27.1413L57.4705 28.1371C57.9459 28.6839 58.7172 28.8663 59.3872 28.5904L59.721 28.4529C59.7556 28.4387 59.7862 28.4162 59.8102 28.3875L59.905 28.2737C60.0107 28.1469 60.2171 28.2216 60.2171 28.3867C60.2171 28.416 60.2099 28.4447 60.196 28.4704L58.6464 31.3484C58.4718 31.6726 58.5215 32.0719 58.7704 32.3434L59.0016 32.5956C59.1854 32.7961 59.1787 33.1058 58.9863 33.2981C58.9212 33.3632 58.8397 33.4094 58.7503 33.4317L58.2518 33.5564C58.2027 33.5686 58.1516 33.571 58.1015 33.5633C57.7451 33.5085 57.519 33.9334 57.7636 34.1983L57.9818 34.4348C58.0513 34.5101 58.1426 34.5619 58.2428 34.583L59.4018 34.827C59.6491 34.879 59.9011 34.9052 60.1537 34.9052H60.9839C61.0045 34.9052 61.0249 34.9004 61.0434 34.8912L61.1602 34.8328C61.2567 34.7845 61.3524 34.8992 61.2877 34.9855C61.2835 34.9911 61.2787 34.9963 61.2734 35.0009L58.5448 37.3987C58.4223 37.5064 58.2648 37.5658 58.1016 37.5658H57.4417C57.1875 37.5658 57.0359 37.8491 57.1769 38.0605C57.1934 38.0853 57.2134 38.1077 57.2361 38.1269L57.8131 38.6152C57.9979 38.7715 57.8874 39.0734 57.6453 39.0734H56.6951C56.6196 39.0734 56.5448 39.0603 56.4739 39.0345L55.9028 38.8268C55.7583 38.7743 55.6055 38.8813 55.6055 39.0351C55.6055 39.0605 55.6099 39.0857 55.6184 39.1096L56.0489 40.315C56.2257 41.0812 56.315 41.8649 56.315 42.6511V43.9511V44.4713L56.1695 44.9198H56.8471L57.3646 43.4259L57.6453 40.4382L58.5597 44.0234L60.0535 41.0357V45.5173L57.6453 47.6087H55.8707L57.2018 49.8921L58.5746 50.7285C60.2385 51.7422 60.1132 54.1977 58.3547 55.0367L58 55.3028V55.9236C59.298 56.0948 60.0407 57.4938 59.4552 58.6649L59.1572 59.2609C60.2159 60.6725 59.1405 62.6819 57.3792 62.575V65.0582L55.5168 67.0979L53.0336 67.9848Z" fill="#876464" stroke="white" stroke-width="2" mask="url(#path-1-inside-1)"/>
<path d="M21.4486 11.8928L17.5207 6.0696C16.8031 5.00559 15.3587 4.72483 14.2947 5.44252C13.2307 6.16021 12.9499 7.60456 13.6676 8.66857L17.6559 14.5814C18.4904 15.8186 18.1639 17.4981 16.9267 18.3326L15.4001 19.3623C15.006 19.6282 14.902 20.1631 15.1678 20.5573C15.4337 20.9514 15.9687 21.0554 16.3628 20.7895L16.5452 20.6664L23.6731 31.234C23.8901 31.5557 24.3268 31.6405 24.6485 31.4236C24.9701 31.2066 25.055 30.7699 24.838 30.4482L17.7101 19.8807L18.9647 19.0345L26.0925 29.6021C26.3095 29.9237 26.7462 30.0086 27.0679 29.7916C27.3895 29.5747 27.4744 29.138 27.2574 28.8163L20.1296 18.2488L21.5633 17.2817L28.6609 27.8045C28.8946 28.1509 29.3649 28.2423 29.7113 28.0086C30.0577 27.775 30.1491 27.3047 29.9155 26.9583L22.8178 16.4356L23.9827 15.6498L31.0804 26.1725C31.314 26.519 31.7843 26.6104 32.1307 26.3767C32.4771 26.143 32.5685 25.6728 32.3349 25.3264L25.2372 14.8036L26.5813 13.897L33.679 24.4198C33.9126 24.7662 34.3829 24.8576 34.7293 24.6239C35.0758 24.3903 35.1672 23.92 34.9335 23.5736L27.8358 13.0508L27.9287 12.9882C28.3228 12.7224 28.4268 12.1874 28.161 11.7933C27.8951 11.3992 27.3601 11.2952 26.966 11.561L25.3498 12.6511C24.0631 13.519 22.3165 13.1795 21.4486 11.8928Z" fill="#876464" stroke="white"/>
<path d="M19.85 26.9378L20.1276 26.0435L21.1794 27.314L21.4428 27.6322L21.8049 27.4336L23.9241 26.2718L24.1838 26.1295V25.8334V23.0312V21.3442H25.2193L26.8209 22.0487L28.1771 22.7267L28.9007 23.0884V22.2795V20.0899L30.274 18.6726L30.6538 20.0228L30.7926 20.5159L31.2822 20.3653L34.6682 19.3237L36.3482 19.9955L34.9626 20.9046L34.7368 21.0527V21.3226V22.7541L19.9679 31.9824L18.6103 30.8373L20.7837 29.6183L21.2204 29.3734L20.9749 28.9371L19.85 26.9378Z" fill="#876464" stroke="white"/>
<rect x="17.8418" y="32.1961" width="23.9675" height="6.91743" transform="rotate(-35.5 17.8418 32.1961)" fill="#876464"/>
</svg>
