<svg width="15" height="16" viewBox="0 0 15 16" fill="none" xmlns="http://www.w3.org/2000/svg">
<path d="M3.01667 6.49313C4.21667 8.85146 6.15 10.7848 8.50833 11.9848L10.3417 10.1515C10.575 9.91813 10.9 9.85147 11.1917 9.94313C12.125 10.2515 13.125 10.4181 14.1667 10.4181C14.3877 10.4181 14.5996 10.5059 14.7559 10.6622C14.9122 10.8185 15 11.0305 15 11.2515V14.1681C15 14.3891 14.9122 14.6011 14.7559 14.7574C14.5996 14.9137 14.3877 15.0015 14.1667 15.0015C10.4094 15.0015 6.80609 13.5089 4.14932 10.8521C1.49256 8.19538 0 4.59203 0 0.834798C0 0.613784 0.0877973 0.401823 0.244078 0.245542C0.400358 0.0892622 0.61232 0.00146484 0.833333 0.00146484H3.75C3.97101 0.00146484 4.18298 0.0892622 4.33926 0.245542C4.49554 0.401823 4.58333 0.613784 4.58333 0.834798C4.58333 1.87646 4.75 2.87646 5.05833 3.8098C5.15 4.10146 5.08333 4.42647 4.85 4.6598L3.01667 6.49313Z" fill="white"/>
</svg>
